<?xml version="1.0" encoding="utf-8"?>
<!-- Generator: Adobe Illustrator 16.0.0, SVG Export Plug-In . SVG Version: 6.00 Build 0)  -->
<!DOCTYPE svg PUBLIC "-//W3C//DTD SVG 1.1//EN" "http://www.w3.org/Graphics/SVG/1.1/DTD/svg11.dtd">
<svg version="1.1" id="Capa_1" xmlns="http://www.w3.org/2000/svg" xmlns:xlink="http://www.w3.org/1999/xlink" x="0px" y="0px"
	 width="250px" height="200px" viewBox="0 0 250 200" enable-background="new 0 0 250 200" xml:space="preserve">
<rect fill="#FFFFFF" width="250" height="200"/>
<g>
	<path fill="#009CD9" d="M76,160.6c-1.3,1.601-3.2,2.9-5.7,3.801c-2.5,0.899-5.2,1.399-8.2,1.399c-3.2,0-5.9-0.6-8.3-2
		c-2.4-1.399-4.2-3.3-5.5-6c-1.3-2.6-2-5.7-2.1-9.2v-2.5c0-3.6,0.6-6.8,1.8-9.5c1.2-2.699,3-4.699,5.3-6.1c2.3-1.4,5-2.1,8.1-2.2
		c4.3,0,7.7,1,10.2,3c2.4,2,3.9,5,4.4,9l-7.3,0.101c-0.3-2.101-1.1-3.601-2.2-4.601s-2.7-1.399-4.7-1.399c-2.6,0-4.5,1-5.8,2.899
		c-1.3,1.9-2,4.8-2,8.601v2.3c0,3.8,0.8,6.7,2.2,8.6c1.5,1.9,3.6,2.9,6.4,2.9c2.8,0,4.8-0.601,6-1.8V151.6h-6.8v-5.5l14.3-0.1
		L76,160.6z"/>
	<path fill="#009CD9" d="M138,157.3l-13.2,0.101l-2.5,7.5l-8,0.1l13.3-36.5h7l13.9,36.3l-8,0.101L138,157.3z M126.8,151.3l9.101-0.1
		l-4.7-13.601L126.8,151.3z"/>
	<polygon fill="#009CD9" points="158.3,158.6 174.2,158.5 174.3,164.6 150.8,164.7 150.6,128.3 158.1,128.2 	"/>
	<path fill="#009CD9" d="M196.3,154.8c0-1.399-0.5-2.5-1.5-3.3s-2.8-1.5-5.399-2.4c-2.601-0.8-4.7-1.6-6.2-2.399
		c-4.2-2.2-6.2-5.2-6.3-9c0-2,0.5-3.7,1.6-5.3c1.1-1.5,2.7-2.801,4.8-3.601c2.101-0.899,4.4-1.3,7-1.3c2.601,0,4.9,0.4,7,1.4
		c2,0.899,3.601,2.199,4.8,4c1.101,1.699,1.7,3.699,1.7,5.8l-7.5,0.1c0-1.7-0.5-3-1.6-3.899c-1.101-0.9-2.5-1.4-4.4-1.4
		c-1.8,0-3.3,0.4-4.3,1.2s-1.5,1.8-1.5,3.1c0,1.2,0.6,2.2,1.8,3s3,1.5,5.3,2.2c4.301,1.3,7.4,2.8,9.4,4.7c2,1.899,3,4.3,3,7.1
		c0,3.2-1.2,5.601-3.5,7.4c-2.4,1.8-5.6,2.7-9.6,2.8c-2.801,0-5.4-0.5-7.7-1.5s-4.101-2.4-5.3-4.2c-1.2-1.8-1.801-3.8-1.9-6.2
		l7.5-0.1c0,4,2.4,6,7.2,6c1.8,0,3.2-0.4,4.2-1.1C195.8,157.2,196.3,156.1,196.3,154.8"/>
	<path fill="#5FB946" d="M89.3,141.8c0.5-0.8,1-1.5,1.6-2.1l-5.4-5.9c-1.4,1.3-2.5,2.8-3.4,4.4L89.3,141.8z"/>
	<path fill="#D09E2A" d="M102.5,137.7c0.8,0.399,1.6,0.8,2.3,1.399l5.4-5.899c-1.4-1.2-3-2.2-4.8-3L102.5,137.7z"/>
	<path fill="#C12033" d="M114.9,139.4l-7.2,3.6c0.3,0.8,0.6,1.6,0.7,2.5l8-0.8C116.2,142.9,115.7,141.1,114.9,139.4"/>
	<path fill="#2D9947" d="M107.2,142l7.1-3.6c-0.9-1.601-2-3.101-3.3-4.4l-5.4,5.9C106.3,140.5,106.8,141.2,107.2,142"/>
	<path fill="#48773C" d="M87.9,147.1c0-0.199,0-0.3,0-0.5l-8-0.699c0,0.399,0,0.8,0,1.199c0,1.5,0.2,3,0.5,4.4l7.7-2.2
		C88,148.6,87.9,147.8,87.9,147.1"/>
	<path fill="#FCB614" d="M106.2,153.6c-0.6,0.7-1.2,1.301-1.9,1.801l4.2,6.8c1.6-1.101,2.9-2.3,4.1-3.8L106.2,153.6z"/>
	<path fill="#EE412A" d="M108.6,147.1c0,0.801-0.1,1.5-0.2,2.2l7.7,2.2c0.4-1.4,0.5-2.9,0.5-4.4c0-0.399,0-0.8,0-1.1l-8,0.8
		C108.6,146.8,108.6,146.9,108.6,147.1"/>
	<path fill="#F89C25" d="M90.4,153.8l-6.4,4.8c1.2,1.5,2.6,2.7,4.2,3.801l4.2-6.801C91.6,155,91,154.4,90.4,153.8"/>
	<path fill="#007DBA" d="M88.1,145.4c0.1-0.9,0.4-1.801,0.8-2.601l-7.1-3.6c-0.8,1.7-1.3,3.5-1.6,5.399L88.1,145.4z"/>
	<path fill="#8E1838" d="M107.5,162.8l-4.2-6.8c-0.8,0.4-1.6,0.8-2.4,1l1.5,7.9C104.2,164.5,105.9,163.8,107.5,162.8"/>
	<path fill="#00ACD7" d="M108,150.4c-0.3,0.8-0.7,1.6-1.1,2.3l6.4,4.8c1-1.5,1.9-3.1,2.4-4.9L108,150.4z"/>
	<path fill="#F26E24" d="M99.7,157.3c-0.5,0.101-1,0.101-1.5,0.101c-0.4,0-0.8,0-1.2-0.101l-1.5,7.9c0.9,0.1,1.8,0.2,2.7,0.2
		c1,0,2-0.101,3-0.2L99.7,157.3z"/>
	<path fill="#E91D2D" d="M98.9,136.8c0.9,0.101,1.7,0.2,2.6,0.5l2.9-7.5c-1.7-0.6-3.5-1-5.4-1v8H98.9z"/>
	<path fill="#DF1A82" d="M95.9,157.1c-0.9-0.199-1.7-0.5-2.5-1l-4.2,6.801c1.6,0.899,3.4,1.6,5.3,2L95.9,157.1z"/>
	<path fill="#1B3668" d="M95.1,137.2c0.8-0.3,1.7-0.4,2.6-0.5v-8c-1.9,0.1-3.8,0.399-5.5,1L95.1,137.2z"/>
	<path fill="#CC8A2A" d="M89.7,152.8c-0.5-0.7-0.9-1.6-1.2-2.399l-7.7,2.199c0.6,1.801,1.4,3.5,2.5,5.101L89.7,152.8z"/>
	<path fill="#005589" d="M91.9,139c0.7-0.5,1.4-1,2.2-1.3l-2.9-7.5c-1.7,0.7-3.3,1.7-4.7,2.899L91.9,139z"/>
	<path fill="#009CD9" d="M55.8,95.8c0-0.6-0.2-1-0.6-1.4c-0.4-0.3-1.1-0.7-2.2-1c-1-0.4-1.9-0.7-2.6-1c-2.2-1.1-3.2-2.5-3.2-4.4
		c0-0.9,0.3-1.7,0.8-2.4c0.5-0.7,1.3-1.3,2.3-1.6c1-0.4,2.1-0.6,3.3-0.6c1.2,0,2.3,0.2,3.2,0.6c0.9,0.4,1.7,1,2.2,1.8
		c0.5,0.8,0.8,1.7,0.8,2.7h-4c0-0.7-0.2-1.2-0.6-1.6c-0.4-0.4-1-0.6-1.7-0.6s-1.3,0.2-1.7,0.5c-0.4,0.3-0.6,0.7-0.6,1.2
		c0,0.4,0.2,0.8,0.7,1.2c0.5,0.3,1.3,0.7,2.4,1.1c1.1,0.4,2.1,0.8,2.8,1.2c1.8,1,2.7,2.5,2.7,4.3c0,1.5-0.5,2.6-1.6,3.4
		c-1.1,0.8-2.6,1.2-4.5,1.2c-1.3,0-2.6-0.2-3.7-0.7s-1.9-1.1-2.5-2c-0.6-0.8-0.8-1.8-0.8-2.9h4c0,0.9,0.2,1.5,0.7,2
		c0.5,0.4,1.2,0.6,2.2,0.6c0.7,0,1.2-0.1,1.6-0.4C55.6,96.7,55.8,96.3,55.8,95.8"/>
	<path fill="#009CD9" d="M75.1,83.6v10.9c0,1.2-0.3,2.3-0.8,3.2c-0.5,0.9-1.3,1.6-2.3,2.1s-2.1,0.7-3.5,0.7c-2,0-3.6-0.5-4.8-1.6
		c-1.2-1.1-1.8-2.5-1.8-4.3v-11h4v11c0,1.8,0.9,2.7,2.5,2.7c0.8,0,1.5-0.2,1.9-0.7c0.4-0.5,0.6-1.2,0.6-2.2V83.6H75.1z"/>
	<path fill="#009CD9" d="M86.4,95.8c0-0.6-0.2-1-0.6-1.4c-0.4-0.3-1.1-0.7-2.2-1c-1-0.4-1.9-0.7-2.6-1c-2.2-1.1-3.2-2.5-3.2-4.4
		c0-0.9,0.3-1.7,0.8-2.4c0.5-0.7,1.3-1.3,2.3-1.6c1-0.4,2.1-0.6,3.3-0.6c1.2,0,2.3,0.2,3.2,0.6s1.7,1,2.2,1.8
		c0.5,0.8,0.8,1.7,0.8,2.7h-4c0-0.7-0.2-1.2-0.6-1.6c-0.4-0.4-1-0.6-1.7-0.6c-0.7,0-1.3,0.2-1.7,0.5c-0.4,0.3-0.6,0.7-0.6,1.2
		c0,0.4,0.2,0.8,0.7,1.2c0.5,0.3,1.3,0.7,2.4,1.1c1.1,0.4,2.1,0.8,2.8,1.2c1.8,1,2.7,2.5,2.7,4.3c0,1.5-0.5,2.6-1.6,3.4
		c-1.1,0.8-2.6,1.2-4.5,1.2c-1.3,0-2.6-0.2-3.7-0.7s-1.9-1.1-2.5-2c-0.6-0.8-0.8-1.8-0.8-2.9h4c0,0.9,0.2,1.5,0.7,2
		c0.5,0.4,1.2,0.6,2.2,0.6c0.7,0,1.2-0.1,1.6-0.4C86.2,96.7,86.4,96.3,86.4,95.8"/>
	<polygon fill="#009CD9" points="105.8,86.7 100.8,86.7 100.8,100.2 96.8,100.2 96.8,86.7 91.9,86.7 91.9,83.6 105.8,83.6 	"/>
	<path fill="#009CD9" d="M115.8,97.1h-5.5l-1,3.1H105l6.1-16.6h3.8l6.1,16.6h-4.3L115.8,97.1z M111.2,94h3.6l-1.8-5.8L111.2,94z"/>
	<rect x="122.8" y="83.6" fill="#009CD9" width="4" height="16.6"/>
	<polygon fill="#009CD9" points="143.7,100.2 139.7,100.2 133.8,89.8 133.8,100.2 129.8,100.2 129.8,83.6 133.8,83.6 139.7,93.9 
		139.7,83.6 143.7,83.6 	"/>
	<path fill="#009CD9" d="M156.1,97.1h-5.5l-1,3.1h-4.3l6.101-16.6h3.8l6.1,16.6H157L156.1,97.1z M151.6,94h3.601l-1.8-5.8L151.6,94z
		"/>
	<path fill="#009CD9" d="M162.8,100.2V83.6h6c2.101,0,3.8,0.4,4.9,1.2c1.1,0.8,1.7,1.9,1.7,3.4c0,0.9-0.2,1.6-0.601,2.2
		c-0.399,0.6-1,1.1-1.7,1.3c0.9,0.2,1.5,0.7,2,1.3s0.7,1.4,0.7,2.3c0,1.6-0.5,2.9-1.5,3.7s-2.6,1.2-4.6,1.3h-6.9V100.2z M166.8,90.5
		h2.101c0.899,0,1.5-0.2,1.899-0.5c0.4-0.3,0.601-0.8,0.601-1.4c0-0.7-0.2-1.2-0.601-1.5c-0.399-0.3-1.1-0.5-2-0.5h-2V90.5z
		 M166.8,93.1v4h2.601c0.699,0,1.3-0.2,1.699-0.5c0.4-0.3,0.601-0.8,0.601-1.4c0-1.4-0.7-2.1-2.101-2.1H166.8z"/>
	<polygon fill="#009CD9" points="182.1,97.1 189.1,97.1 189.1,100.2 178.1,100.2 178.1,83.6 182.1,83.6 	"/>
	<polygon fill="#009CD9" points="201.4,93.1 195.1,93.1 195.1,97.1 202.5,97.1 202.5,100.2 191,100.2 191,83.6 202.5,83.6 
		202.5,86.7 195.1,86.7 195.1,90.2 201.4,90.2 	"/>
	<path fill="#009CD9" d="M47.2,122.7v-16.3h5.2c1.4,0,2.7,0.3,3.9,1c1.1,0.699,2,1.6,2.7,2.8c0.6,1.2,1,2.5,1,4v0.8
		c0,1.5-0.3,2.8-0.9,4s-1.5,2.1-2.7,2.8c-1.1,0.7-2.4,1-3.8,1h-5.4V122.7z M51.1,109.4V119.6h1.4c1.1,0,2-0.399,2.6-1.199
		c0.6-0.801,0.9-2,0.9-3.601v-0.7c0-1.6-0.3-2.8-0.9-3.6s-1.5-1.2-2.6-1.2h-1.4V109.4z"/>
	<polygon fill="#009CD9" points="71.2,115.8 65.5,115.8 65.5,119.7 72.4,119.7 72.4,122.7 61.5,122.7 61.5,106.4 72.4,106.4 
		72.4,109.4 65.5,109.4 65.5,112.9 71.2,112.9 	"/>
	<polygon fill="#009CD9" points="81,118.3 84.2,106.4 88.6,106.4 83.1,122.7 78.8,122.7 73.4,106.4 77.7,106.4 	"/>
	<polygon fill="#009CD9" points="99.4,115.8 93.7,115.8 93.7,119.7 100.5,119.7 100.5,122.7 89.8,122.7 89.8,106.4 100.6,106.4 
		100.6,109.4 93.7,109.4 93.7,112.9 99.4,112.9 	"/>
	<polygon fill="#009CD9" points="105.8,119.7 112,119.7 112,122.7 101.9,122.7 101.9,106.4 105.8,106.4 	"/>
	<path fill="#009CD9" d="M126.6,114.9c0,1.6-0.3,3-0.899,4.199c-0.6,1.2-1.4,2.2-2.5,2.801c-1.1,0.699-2.3,1-3.7,1s-2.6-0.301-3.7-1
		c-1.1-0.601-1.9-1.5-2.5-2.7c-0.6-1.2-0.9-2.5-0.9-4.101V114.2c0-1.601,0.3-3,0.9-4.2c0.6-1.2,1.4-2.2,2.5-2.8c1.1-0.7,2.3-1,3.7-1
		s2.6,0.3,3.7,1c1.1,0.7,1.9,1.6,2.5,2.8c0.6,1.2,0.899,2.6,0.899,4.2V114.9z M122.7,114.2c0-1.601-0.3-2.8-0.8-3.7
		c-0.5-0.8-1.3-1.3-2.3-1.3c-2,0-3,1.5-3.1,4.399v1.2c0,1.601,0.3,2.8,0.8,3.7s1.3,1.3,2.4,1.3c1,0,1.8-0.399,2.3-1.3
		c0.5-0.8,0.8-2.1,0.8-3.6v-0.7H122.7z"/>
	<path fill="#009CD9" d="M132.1,117.2v5.5H128.2v-16.3h6.5c1.2,0,2.3,0.199,3.3,0.699s1.7,1.101,2.2,2c0.5,0.801,0.8,1.801,0.8,2.9
		c0,1.6-0.6,2.9-1.7,3.8c-1.1,1-2.7,1.4-4.7,1.4H132.1z M132.1,114.1h2.601c0.8,0,1.3-0.199,1.7-0.6c0.399-0.4,0.6-0.9,0.6-1.6
		c0-0.801-0.2-1.4-0.6-1.801c-0.4-0.5-1-0.699-1.7-0.699H132.1V114.1z"/>
	<polygon fill="#009CD9" points="147.6,106.4 151.3,117.7 154.9,106.4 160.1,106.4 160.1,122.7 156.1,122.7 156.1,118.9 
		156.5,111.1 152.6,122.7 150,122.7 146,111.1 146.4,118.9 146.4,122.7 142.5,122.7 142.5,106.4 	"/>
	<polygon fill="#009CD9" points="171.5,115.8 165.7,115.8 165.7,119.7 172.6,119.7 172.6,122.7 161.8,122.7 161.8,106.4 
		172.7,106.4 172.7,109.4 165.7,109.4 165.7,112.9 171.5,112.9 	"/>
	<polygon fill="#009CD9" points="187.6,122.7 183.7,122.7 177.9,112.5 177.9,122.7 174,122.7 174,106.4 177.9,106.4 183.7,116.5 
		183.7,106.4 187.6,106.4 	"/>
	<polygon fill="#009CD9" points="202.5,109.4 197.6,109.4 197.6,122.7 193.7,122.7 193.7,109.4 188.9,109.4 188.9,106.4 
		202.5,106.4 	"/>
	<path fill="#009CD9" d="M141.8,44.8c1.9,3.7,2.5,8.9,1.2,13.1c-1.3,5-5.5,10-10.4,12.1c-5.5,2.7-13.3,2-18.2-1.5
		c-6.8-4.7-9.6-12.7-7.5-20.7c1.2-4.7,5-9.5,9.6-11.7c2.6-1.3,5.4-2,8.5-2C132,34.2,138.7,38.3,141.8,44.8 M125.4,35.1
		c0.1,0.7,0.1,1.7,0,2.6c0-0.1,0-0.2,0.1-0.2c0.1-0.1,0.2,0,0.3,0.1c0,0.1,0.101,0.4,0,0.4c0.101,0,0.2-0.1,0.3-0.1
		c2.101,0.2,4.101,0.8,5.9,1.8l0,0c0.4-0.2,0.8-0.4,1.2-0.1c0.399-0.2,0.5,0.4,0.899,0.4c0.4,0.3,0.9,0.7,1,1.3
		c0.101,0.2,0.301,0.3,0.4,0.5c0.3-0.6,0.9-1.1,1.4-1.6l0.3-0.1c-2.8-2.7-6.2-4.2-9.9-4.7C126.6,35.2,125.9,35.3,125.4,35.1
		 M124.3,35.2c-3.8,0.1-7.1,1.4-10,3.6c-0.6,0.4-1.1,1-1.7,1.3h0.1c0.7,0.5,1.4,1.3,2.1,2V42c2.7-2.5,5.9-3.8,9.5-4l-0.1-0.2v-2.2
		L124.3,35.2z M127.5,36.6l-1.3,0.6c-0.101,0-0.3-0.1-0.4,0c-0.1,0,0,0.1,0,0.2c0.5,0.6,1.4,0.3,2,0.2c0.4,0.2,0.9,0,1.2-0.3v-0.1
		C128.7,36.7,128.1,36.6,127.5,36.6 M125.3,38.9l0.1,0.2c0,0.9,0,1.8,0,2.6c0.4-0.1,0.7,0,1.1,0c1.8,0.3,3.6,0.9,5,2
		c-0.2-0.2-0.4-0.4-0.4-0.7h0.101c0-0.3-0.3-0.4-0.3-0.7c0-0.1,0.1-0.1,0.199-0.1c0.301,0.3,0.601,0.6,0.801,1
		c0.199-0.1,0.399,0,0.5,0.2c0.3,0.2,0.1,0.5,0.3,0.7c0,0.6,0.7,0.9,0.7,1.4c0,0.1,0.199,0,0.199,0.1l0.601,0.7
		c-0.101,0.1,0,0.3,0.1,0.4c0.3,0.1,0.4-0.2,0.601-0.2c0.399,0.2-0.101,0.4,0,0.7c0.1,0,0.3-0.1,0.399,0c0,0.2-0.2,0.3-0.3,0.5
		c0,0.2,0.2,0.2,0.3,0.2c0.2,0,0.3,0.2,0.2,0.3c0.5,0.5-0.1,1,0.1,1.5c0.2,0.3,0,0.7-0.199,0.9c0,0.4-0.4,0.7-0.5,1l-0.5,0.1
		c-0.301,0.3,0.199,0.6,0,0.7h1l-0.101-0.1c-0.2-0.4-0.1-1,0.101-1.3c0.199-0.3,0.199-0.7,0.5-1c0.1,0,0.199-0.1,0.199,0
		c0,0.3,0,0.7-0.199,1c0.3,0.4,0.3,1,0.3,1.5c0.899-0.1,1.8-0.1,2.7-0.1l-0.101-0.2c-0.1-1.7-0.5-3.4-1.2-4.8
		c-0.199,0-0.3,0.2-0.6,0.1c-0.1,0-0.1-0.1-0.1-0.2c-0.4-0.4-0.601-0.8-1-1.1c-0.5,0-0.7-0.5-1.101-0.6c-0.399-0.2-0.1-0.8-0.7-0.6
		c-0.3-0.1-0.5-0.3-0.6-0.6c0-0.5-0.1-1-0.5-1.3c-0.3-0.1-0.5,0.3-0.8,0.3c-0.2-0.1-0.101-0.3-0.2-0.5c-0.1-0.1-0.2-0.2-0.2-0.4
		c0.4-0.6-0.5-0.6-0.3-1.1c-0.1-0.4-0.5-0.6-0.7-0.9c-1.399-0.7-2.899-1.1-4.5-1.3C126.1,39,125.7,39.1,125.3,38.9 M133.8,38.9
		c-0.2,0.2-0.399-0.2-0.5,0c0,0.1,0,0.2,0.101,0.3c0.399,0.1,0.399,0.7,0.899,0.6c0.2-0.2-0.1-0.3,0-0.6
		C134.1,39.1,134,39,133.8,38.9 M117,41.4c-0.6,0.4-1.1,0.9-1.7,1.3c0.7,0.4,1.3,1.2,1.9,1.7l0.1,0.2c1.6-1.5,3.5-2.4,5.6-2.8
		c0.5,0,1-0.2,1.5-0.1c0-0.9-0.1-1.8,0-2.7C121.6,39.2,119.2,40,117,41.4 M137.8,40.6c-0.5,0.7-1.2,1.3-1.899,2l-0.301,0.1
		c0.2,0,0.301,0.3,0.4,0.4c0.7,0.4,0.9,1.1,1.5,1.5c0.3,0.7,1.1,1.2,1.1,2c0.801,1.8,1.4,3.7,1.4,5.8l-0.1,0.1
		c0.1,0,0.199,0,0.199-0.1h2.7c-0.2-0.3-0.1-0.6-0.1-1C142.3,47.3,140.6,43.7,137.8,40.6 M112.1,40.6c-2.7,3-4.3,6.3-4.8,10.2
		c-0.1,0.6,0,1.1-0.1,1.7c0.9-0.1,2-0.1,2.9,0l-0.1-0.4c0.2-3,1.1-5.6,2.8-8c0.4-0.5,0.7-1.1,1.3-1.4c-0.6-0.6-1.2-1.2-1.9-1.9
		L112.1,40.6z M124.4,42.6l-0.2,0.1c-2.4,0.2-4.4,1.2-6.2,2.6c0.7,0.5,1.3,1.3,2,1.9c0-0.1,0.1-0.1,0.1-0.2c0.9-0.6,1.8-1.2,2.8-1.5
		c0.5,0,0.9-0.3,1.4-0.2C124.3,44.5,124.3,43.5,124.4,42.6 M125.4,42.6l0.1,0.2v2.5h0.2c1.5,0.2,3,0.7,4.2,1.7l0.1,0.2
		c0.4-0.6,1.1-1.1,1.5-1.7l0.5-0.3l-0.2-0.1c-1-0.9-2.1-1.5-3.399-1.9C127.4,42.9,126.4,42.8,125.4,42.6 M114.7,43.3v0.2l-1,1.3
		c-1.7,2.3-2.4,4.9-2.7,7.7h2.6l0.2,0.1c-0.1-0.1-0.1-0.2-0.1-0.3c0.2-2.7,1.1-5,3-7C115.9,44.7,115.3,44,114.7,43.3 M132.5,45.9V46
		c-0.9,0.9-1.8,1.8-2.6,2.7c0.1,0.1,0.199,0.2,0.3,0.3c0-0.2,0.2-0.4,0.2-0.7c0.199-0.3,0.6-0.1,0.8,0c0.399-0.1,0.899,0.1,1.3,0.1
		c0.3,0.2,0.4,0.6,0.7,0.8c0.1,0.1,0,0.3-0.101,0.4c0.101,0.7,0.4-0.2,0.801,0c0.1,0.1,0.3,0,0.399,0.2c0.101,0.3,0.4,0.2,0.4,0.5
		c0,0.1-0.2,0.2-0.3,0.3c0.1,0.3-0.301,0.5-0.2,0.8c0.5,0.1,0.6-0.5,0.8-0.8c-0.1-0.5-0.2-1-0.5-1.4c-0.3-0.1-0.5-0.4-0.8-0.5
		c-0.601-0.2,0.1-0.6,0-1C133.4,47,132.9,46.4,132.5,45.9 M117.3,46c-1.3,1.5-2.2,3.2-2.5,5.2c-0.1,0.4,0,1-0.2,1.4
		c0.3-0.2,0.8-0.1,1.2,0c-0.2-0.1,0-0.4-0.2-0.5c0-0.2-0.1-0.5,0.2-0.7c0-0.4,0.4-0.6,0.4-0.9c0.1-0.4,0.6-0.1,0.8-0.3
		c0.1-0.1,0-0.2,0-0.3c0.2-0.3,0.5-0.2,0.7-0.4c0.2-0.2,0.4-0.5,0.6-0.7c0.6,0,0.6-0.8,1.1-0.8C118.7,47.4,118,46.6,117.3,46
		 M125.4,46.3c0.2,0.5,0,1.3,0.1,1.9l0.7,0.2c0.2-0.3,0.6-0.4,0.8-0.7c0.1-0.1,0.3,0,0.4,0.1c0,0.3,0,0.5-0.101,0.7
		c-0.3,0.5-0.8,0.6-1.2,0.9c0.2,0.1,0.301-0.1,0.5-0.2c0.301,0,0.5,0.3,0.601,0.4c0.2,0.1,0.3,0,0.5-0.1c0.1-0.8,1.1-0.7,1.399-1.4
		l-0.199,0.1c-0.101-0.1-0.301-0.1-0.301-0.2c0.2-0.2,0.4-0.4,0.601-0.4c-0.8-0.5-1.7-1-2.7-1.2C126.1,46.5,125.7,46.4,125.4,46.3
		 M120.4,48.3h0.2c0.2,0.2,0.6,0.2,0.8,0.5c0.1,0.2-0.2,0.2-0.2,0.3c0,0,0.1,0,0.2,0.1c0.2,0.1,0.1-0.1,0.2-0.2
		c0.2-0.2,0.3,0.2,0.5,0.2c0.2-0.1,0.4-0.1,0.5,0.1c0.2-0.1,0.5,0,0.5-0.3c0.3-0.3,0.1-0.8,0.6-1c0.1,0.1,0,0.2,0,0.4
		c0.3,0.1,0.6-0.2,0.8,0c-0.2-0.6-0.2-1.4-0.1-2C122.9,46.6,121.5,47.1,120.4,48.3 M124.9,49.8c-0.1-0.2-0.5-0.1-0.7,0
		c0.2,0.2,0.1,0.5,0.2,0.8c-0.3,0.5-0.7,0.6-1.2,0.7c-0.1,0.2-0.1,0.5-0.4,0.4c-0.1,0.2-0.4,0.3-0.3,0.6c-0.2,0.3-0.1,0.7-0.2,1.1
		c-0.6,0.3-0.4-0.5-0.7-0.6l-0.1,0.2c-0.1,0-0.2,0-0.3-0.1c-0.1,0-0.2-0.1-0.3,0c-0.1,0.2-0.3,0.4-0.3,0.7c-0.1,0.2-0.3,0.1-0.3,0.3
		c0.3,0,0.6-0.1,0.9-0.1c0.2,0.1,0.4-0.1,0.6-0.1c0.1,0,0.2,0.1,0.1,0.2h0.1c0.2-0.1,0.2-0.3,0.2-0.4c0-0.2,0.2-0.2,0.4-0.3
		c0.1,0.1,0,0.2,0.1,0.3c0.4,0.2-0.1,0.5-0.2,0.7c-0.1,0.2,0,0.6-0.4,0.5c-0.1,0-0.1-0.1-0.1-0.2l0,0c0,0.1,0.1,0.4,0.3,0.4
		c0.3-0.2,0.3-0.6,0.6-0.6c0.2-0.2-0.1-0.5,0.2-0.7c0.5,0,1-0.2,1.4,0.2c0,0.2-0.1,0.2,0,0.4c-0.1,0.2-0.2,0.4-0.3,0.6
		c0,0.1,0,0.3-0.1,0.4c-0.1,0.6-0.8,0.3-1.2,0.5c0.6,0.4,1.3,0.6,2.1,0.6c0.4,0,0.2-0.5,0.4-0.7c0.1-0.7,0.7-0.2,1.1-0.4
		c0.1-0.3,0.3-0.6,0.3-0.9c-0.2-0.1-0.3-0.4-0.3-0.7c-0.2-0.2-0.1-0.6-0.5-0.6c-0.1-0.1,0-0.2,0-0.2c0-0.2,0.2-0.3,0.3-0.4
		c-0.2-0.1-0.2-0.4-0.1-0.6c-0.4,0.1-0.4-0.4-0.7-0.5c-0.1-0.2-0.3-0.3-0.5-0.3c-0.4,0.2-0.5-0.3-0.9-0.5c0-0.1-0.1-0.3,0-0.3
		c0.2-0.1,0.4,0,0.6,0L124.9,49.8z M116.8,52.1c-0.8,0.2,0.1,0.8-0.1,1.3c-0.1,0.3-0.4,0-0.6,0.1L116,54c-0.1,0.3-0.5,0.1-0.6,0.3
		c-0.1,0.2,0,0.4,0.1,0.5c-0.3,0.6,0.6,0.8,0.6,1.3c0.3,0.3,0,0.8,0.3,1.1c0.1,0.6-0.1,1.4,0.4,1.9l0.1,0.6c0.1,0.4-0.5,0.3-0.4,0.7
		c0.1-0.1,0.1,0.1,0.1,0.1l0,0c0.7-0.8,1.5-1.7,2.4-2.4l-0.4-0.4c-0.7-1-1.2-2-1.4-3.2l-0.3-0.1c0,0.3-0.1,0.5-0.1,0.8l-0.1,0.1
		c-0.2,0-0.3-0.2-0.5-0.3c0-0.1-0.1-0.3,0-0.4c0.1,0,0.2,0,0.2,0.1c0.1-0.1,0-0.3,0.1-0.4c0-0.2-0.2-0.4,0-0.6
		c0.2,0,0.3,0.2,0.4,0.3c0.2,0.1,0.3-0.1,0.5-0.2c0-0.2,0.2-0.4,0-0.5c0.1-0.4,0-0.7,0-1.1C117.4,52,117,52.1,116.8,52.1
		 M134.3,52.4c-0.1,0-0.2,0-0.3,0C134.1,52.4,134.2,52.4,134.3,52.4 M133.7,53.4l0.3,0.3c0.3,0.2,0.1,0.6,0.4,0.8
		c0.399,0.2,0.5,0.6,0.699,0.9c0.101-0.1,0.101-0.2,0.101-0.3c0.1-0.5,0.1-1.1,0.3-1.6C134.8,53.5,134.2,53.6,133.7,53.4
		 M140.1,53.5l-0.199-0.1l0.1,0.3c-0.2,3.1-1.2,5.9-3,8.3c-0.3,0.4-0.7,0.9-1.1,1.2c0.699,0.6,1.5,1.4,2.1,2l0.1-0.1
		c2.9-3.3,4.5-7,4.7-11.4l0.101-0.2l-0.101,0.1L140.1,53.5z M136.3,53.4c0.101,0.6-0.1,1.1-0.1,1.7l0.3,0.3c0.1,0.1,0.1,0.3-0.1,0.4
		c-0.101,0.1-0.301,0.1-0.4,0c-0.4,1.3-0.8,2.5-1.6,3.6c-0.301,0.4-0.601,0.9-1,1.1l0.8,0.7c0,0,0-0.1,0-0.2s0.1-0.2,0.2-0.2
		c0.399,0,0.399,0.4,0.699,0.7c0,0.4,0.301,0.6,0.2,1c2.4-2.5,3.5-5.5,3.7-8.9l0.1-0.1c-0.8,0.1-1.699,0-2.6,0L136.3,53.4z
		 M114.5,53.4l0.1,0.2c0,0.6,0.3,1.2,0.1,1.8c0.1-0.2,0.1-0.4,0.4-0.5c0-0.2-0.2-0.2-0.2-0.4c0.2-0.3,0-0.9,0.5-1.1
		C115.1,53.6,114.8,53.6,114.5,53.4 M110.1,53.5l-0.3,0.1h-2.6c0.2,3,0.9,5.7,2.3,8.2c0.7,1.2,1.6,2.3,2.5,3.5l1.9-1.9l0.2-0.1
		c-0.3-0.2-0.6-0.6-0.9-0.9c-0.3-0.1-0.6-0.3-0.8-0.6c-0.1-0.1,0-0.3-0.1-0.4l-0.1,0.1c-0.3,0.2-0.4-0.2-0.7-0.3
		c-0.3-0.2-0.2-0.7-0.5-0.6c-0.2,0-0.2-0.2-0.3-0.3c-0.4,0-0.5-0.4-0.7-0.6c0,0.1,0,0.2-0.1,0.3c-0.4,0.1-0.5-0.4-0.8-0.6
		c-0.1,0-0.1,0.1-0.2,0.1c-0.2-0.2-0.4-0.5-0.4-0.8c-0.3-0.3-0.2-0.9-0.1-1.3c0.1-0.1,0.2-0.2,0.2-0.3c0.1-0.2,0.3-0.2,0.5-0.2
		c0.1,0,0.2,0.1,0.2,0.2c0.1-0.1,0.4,0,0.3-0.3c0.2-0.1,0.4-0.2,0.6-0.2c0.2,0.2,0.2,0.4,0.4,0.6l-0.1-0.2c-0.2-0.9-0.4-1.8-0.4-2.8
		c0-0.1-0.1-0.1,0-0.1l0,0C110,53.8,110,53.6,110.1,53.5 M113.7,53.5l-0.2,0.1c-0.9,0-1.8,0.1-2.6-0.1l0.1,0.2l0.2,1.7
		c0.1,0.7,0.4,1.3,0.4,2c0.1-0.1,0-0.4,0.3-0.4c-0.1-0.2,0.2-0.4,0-0.6c0.1-0.4,0.1-0.9,0.5-1.2c0.5,0,0.5-0.6,1-0.7
		c0.2,0,0.4,0.3,0.5,0.4C113.6,54.5,113.6,53.9,113.7,53.5 M118.5,54.6c0.3,0.5,0.4,1,0.7,1.5c0.2,0.4,0.5,0.8,0.7,1.2
		c0.2-0.3,0.5-0.6,0.8-0.9c0-0.1,0-0.3-0.1-0.4c-0.1-0.2,0-0.5-0.2-0.6c-0.2,0.1,0.1,0.3,0,0.5c-0.1,0.1-0.2,0-0.2-0.1
		c-0.2,0-0.4-0.2-0.4-0.4c0.2-0.1,0-0.2-0.1-0.3c-0.1,0-0.1,0-0.2,0h-0.1C119.3,54.6,118.7,54.9,118.5,54.6 M121.4,55.4
		c-0.1,0.2-0.2,0.4-0.4,0.6l0,0c0.2-0.2,0.4-0.4,0.7-0.5L121.4,55.4z M128.8,56.1c0,0.1,0,0.3,0.101,0.4
		c0.399-0.1,0.199,0.4,0.5,0.4c0.199-0.1,0-0.2,0.1-0.3c-0.1-0.3-0.3-0.3-0.5-0.5c0-0.1,0-0.1,0-0.1C128.9,55.9,128.9,56,128.8,56.1
		 M134.1,56.2c-0.3,0-0.6,0.1-0.8,0c-0.1-0.1-0.1,0-0.1,0.1c-0.101,0.1-0.2,0.3-0.4,0.3c-0.2-0.1-0.2-0.3-0.2-0.4c0,0.1,0,0.2,0,0.3
		c-0.199,0.2-0.3,0.4-0.399,0.6c-0.2,0.2-0.5,0.1-0.7,0.3c0,0.4-0.5,0.4-0.8,0.5c0,0.1,0,0.1,0.1,0.1c0.101,0,0.3,0,0.4-0.1
		c0.399,0.1,0.3-0.4,0.5-0.6c0.2,0,0.399-0.2,0.6-0.1c0.2,0.3,0.3,0.6,0.2,0.9c-0.2,0.2-0.1,0.6-0.3,0.8c0,0.3-0.3,0.4-0.3,0.8
		c-0.101,0.1-0.301,0.2-0.5,0.2c-0.7-0.3-1.5-0.5-2.301-0.5c-0.1,0-0.1,0.1-0.1,0.2c0.3,0.2,0.7,0.2,1.1,0.3
		c0.301,0.1,0.5,0.5,0.9,0.4c0.3-0.2,0.9,0.1,1.1-0.2c0-0.3,0.301-0.6,0.4-0.9h0.1c0.2,0.2,0.2,0.5,0.301,0.7
		c0.3-0.3,0.5-0.6,0.699-0.9c0.601-0.9,1.101-1.9,1.4-2.9C134.6,56,134.3,56.1,134.1,56.2 M122.3,56.2c-0.4,0.7-1.2,1.3-1.7,1.9
		c1,0.8,2.1,1.3,3.4,1.5c0.1-0.3,0-0.6,0.1-0.8c0.1-0.2,0.3-0.2,0.5-0.2c0.1,0,0.2-0.2,0.1-0.2c-0.3-0.1-0.1-0.4-0.2-0.5
		c0-0.1,0.2-0.1,0.1-0.2c-0.2-0.2,0.1-0.3-0.1-0.5c0.1,0,0.1-0.1,0.2-0.1c-0.6,0.3-1.2-0.1-1.7-0.3
		C122.7,56.6,122.4,56.4,122.3,56.2 M127.7,57.8c0,0.1-0.101,0.2,0,0.3c0.2-0.2,0.7-0.2,0.7-0.6C128.1,57.4,128,57.6,127.7,57.8
		 M128.8,58.5c-0.3,0-0.399,0.2-0.7,0.4c-0.3,0.2-0.399-0.3-0.6-0.2l0.1,0.1c0.101,0.1,0.101,0.2,0,0.3c-0.3,0.3-0.5-0.1-0.8-0.1
		v0.1c0,0.1,0,0.2-0.1,0.1c-0.2-0.3-0.601-0.2-0.8-0.5c-0.101-0.1-0.2,0-0.301,0.1c-0.1,0.1-0.399,0-0.3,0.2
		c-0.2,0.1-0.3,0.3-0.4,0.5c-0.3,0-0.4,0.3-0.7,0.3c0,0.1,0,0.2,0.1,0.2c0.2,0.1,0.3,0.1,0.5,0.1c0.3-0.4,0.7-0.1,1.101-0.2
		c0.199,0,0.1,0.3,0.3,0.4c0.399-0.1,0.7,0.3,1,0c0-0.4,0.5-0.4,0.7-0.5C128.4,59.5,128.9,59.1,128.8,58.5L128.8,58.5z M119.8,58.7
		c-0.6,0.7-1.2,1.4-1.9,1.9c0.3,0,0.4,0.3,0.7,0.5c1.4,1.2,3.1,1.7,4.8,2.1L123,63c-0.3-0.4-0.8-0.8-0.8-1.4
		c0.3-0.1,0.3-0.5,0.4-0.7c0.3-0.3,0.6-0.5,1-0.5c-0.9,0.4-1.8-0.3-2.5-0.7C120.6,59.4,120,59.2,119.8,58.7 M132.8,61.3l-0.1-0.2
		c-0.101,0.2-0.3,0.4-0.4,0.5c0,0.2,0,0.4,0.101,0.5c0.399,0.1,0.899,0.4,0.899,0.8c-0.1,0.4-0.899,0.8-0.399,1.2
		c0.199,0.2-0.2,0.3-0.2,0.5l0.1-0.2c0.601-0.4,1.2-0.8,1.7-1.4h0.1c-0.1,0-0.3,0.1-0.399,0c-0.3-0.1-0.3-0.4-0.3-0.6L132.8,61.3z
		 M117.7,61.7L117.7,61.7L117.7,61.7L117.7,61.7z M118,62.1c-0.1-0.1-0.2-0.1-0.2-0.3L118,62.1z M118.1,62.2
		c0.1,0.2,0.4,0.4,0.3,0.6c-0.2,0.3-0.5,0.3-0.7,0.3c-0.5-0.1-0.9,0.3-1.4,0.4s-0.6-0.4-1-0.4c2.6,2.3,5.6,3.7,9,3.9l0.3,0.2
		l-0.1-0.3v-2.5l-0.2,0.1C121.9,64.3,119.9,63.5,118.1,62.2 M135.4,63.9v-0.2c-0.301,0.5-0.801,0.8-1.301,1.2
		c-0.6,0.6-1.6,0.7-1.899,1.6c-0.3,0.3-0.4,0.8-0.9,0.9c-0.2,0.4-0.6,0.4-0.899,0.7c-0.801,0.7-1.301-0.4-2-0.6l-1.4,0.3
		c-0.5,0-1,0.2-1.5,0c0.1,1,0.1,2,0,2.9l0.2-0.1c4.5-0.2,8.399-1.9,11.7-4.9L135.4,63.9z M114.6,63.9V64l-1.9,1.9
		c2.9,2.5,6.2,4.1,9.9,4.7c0.6,0.1,1.3,0,1.9,0.2l-0.1-0.2v-2.5l0.1-0.1l-0.3,0.1C120.5,67.7,117.3,66.5,114.6,63.9 M125.3,64.5
		l0.1,0.2c0,0.8,0.1,1.5,0,2.3c0.7-0.2,1.5-0.2,2.2-0.3c-0.1-0.1-0.3-0.1-0.399-0.2c-0.4,0-0.601-0.5-0.8-0.8
		c-0.101-0.3,0.1-0.5,0.199-0.7c-0.199-0.4-0.8-0.1-1.1-0.2C125.5,64.7,125.4,64.6,125.3,64.5"/>
	<path fill="#009CD9" d="M142.5,37.7c1.4,1.2,2,2.8,2.4,4.5l0.199,0.5c-2-1.4-3.8-3.4-5.1-5.4l-1.5-1.6
		C139.8,36.3,141.3,36.7,142.5,37.7"/>
	<path fill="#009CD9" d="M107.8,40.2c-0.9,1.1-2.1,1.9-3.1,2.8c0.6-1.2,0.6-2.5,1.4-3.6c1.1-2,3.2-2.7,5.1-3.4
		C109.7,37.2,108.8,38.7,107.8,40.2"/>
	<path fill="#009CD9" d="M147.3,42.2c0.4,2-0.2,3.9,0.2,5.9l0,0c-1.1-2.1-3.3-3.1-4.9-4.8c-0.899-1-1.3-2.2-1.5-3.5
		c0.9,2.2,3.301,2.6,4.7,4.4c0.5,0.4,0.601,1,0.9,1.5l0,0c-0.8-1.7-1.101-3.6-1.601-5.4c-0.3-0.8-0.8-1.6-1.6-2.1
		C145.4,38.6,146.9,40.5,147.3,42.2"/>
	<path fill="#009CD9" d="M106.1,38.5c-1.8,1.3-1.7,3.5-2.3,5.4c-0.2,0.7-0.5,1.3-0.7,2.1l0,0c0.3-0.8,0.8-1.6,1.5-2.2
		c1.3-1.2,3.3-2,3.9-3.8c0,2.5-2.1,4.5-4.1,5.9c-0.8,0.7-1.6,1.5-2.1,2.5c0-0.6,0.1-1.3,0-1.9c-0.2-2.2-0.4-4.7,1.2-6.3
		C104.3,39.4,105.1,38.8,106.1,38.5"/>
	<path fill="#009CD9" d="M148.5,42.6c1.7,2.2,2,5.8,0.8,8.4c-0.399,1.1-0.8,2.2-0.899,3.5c-0.101-0.2-0.101-0.5-0.2-0.7
		c-0.7-2.5-3-4.3-4-6.7c-0.3-0.8-0.601-1.6-0.7-2.4c1,1.9,3.6,2.9,4.3,5.1c0.3,0.5,0.3,1.2,0.4,1.8c0,0,0.1,0,0.1-0.1
		c-0.3-2.2-0.2-4.5,0.101-6.7c0-1.2-0.101-2.3-0.801-3.2C148,41.8,148.2,42.3,148.5,42.6"/>
	<path fill="#009CD9" d="M102.1,41.9c-1.4,2.2-0.2,4.9-0.3,7.3l-0.2,2.5c0,0,0,0.1,0.1,0.1c0.1-0.3,0.1-0.6,0.2-0.9
		c0.3-2,2.1-3.5,3.6-4.9c0.3-0.4,0.6-0.7,0.8-1.2c-0.1,1-0.4,2-0.9,3c-1.2,2.3-3.4,4.2-3.8,6.9c-0.2-2.6-1.9-4.5-1.8-7.2
		c-0.1-2.2,0.9-4,2.1-5.6C102,42,102.1,41.9,102.1,41.9"/>
	<path fill="#009CD9" d="M150,57.2c-1,1.4-2.2,2.7-3.1,4.1c0.1-1.1,0.199-2.5-0.2-3.6c-0.8-2.3-1.4-4.6-1.601-7.1v-1
		c0.601,2.6,3.101,4.3,2.9,7.2c0.1,0.7-0.2,1.3-0.3,1.9l0,0l0.1-0.1c0.4-1.4,0.601-2.9,1.101-4.2c0.8-1.9,1.899-3.8,1.399-6.1
		C151.8,51.1,151.4,54.7,150,57.2"/>
	<path fill="#009CD9" d="M101.4,56.3c0.3,0.9,0.3,2,0.7,2.8h0.1c-1-2.7,0.4-5.2,1.8-7.3c0.3-0.6,0.5-1.2,0.7-1.9
		c0.1,1.2-0.2,2.6-0.3,3.9c-0.3,1.6-0.8,3.1-1.3,4.7c-0.3,1-0.2,2.1-0.1,3.1l-0.1-0.1c-1-1.9-3-3.3-3.6-5.4
		c-0.5-1.6-0.8-3.5-0.5-5.3c0.2-0.7,0.3-1.4,0.6-2C98.8,51.7,100.8,53.8,101.4,56.3"/>
	<path fill="#009CD9" d="M146.2,61.6c-0.101,1.3-0.5,2.4-1.101,3.4h0.101c0.899-1.2,1.6-2.4,2.6-3.5c1.601-1.6,3.3-3.2,3.5-5.3
		c0.601,3.6-1.5,6.8-4.5,8.9c-1.2,0.8-2.5,1.6-3.7,2.5v-0.1c1.801-3,0.9-7.2,2.101-10.6l0.399-1.1C145.3,57.7,146.2,59.5,146.2,61.6
		"/>
	<path fill="#009CD9" d="M106.1,65.7c0.2,0.7,0.6,1.3,0.9,2c-2.8-1.9-6.6-3.7-7.8-7.2c-0.5-1.2-0.6-2.7-0.5-4.1
		c0.2,3.1,3.5,4.7,5.1,7.3c0.4,0.5,0.7,1.1,1.2,1.5c-0.1-0.3-0.4-0.6-0.5-0.9c-0.5-1.1-0.7-2.4-0.6-3.6c0.2-1.6,0.8-3,0.6-4.7
		C105.8,58.9,105.3,62.6,106.1,65.7"/>
	<path fill="#009CD9" d="M142,68c-0.5,0.8-1.2,1.6-1.9,2.3c0.2,0,0.5-0.2,0.7-0.4c2-2,4.601-2.6,6.8-4.2c0.9-0.7,1.7-1.6,2-2.6
		c-0.399,3.3-3.699,6.4-6.8,7.4c-1.6,0.4-3.3,0.6-4.899,1.1c2.6-2.3,2.5-5.8,4.3-8.4c0.6-0.8,1-1.5,1.7-2.3
		C142.8,63.1,143.3,65.9,142,68"/>
	<path fill="#009CD9" d="M108.7,65.2c0.9,2.3,1.3,4.9,3.4,6.6c-2.3-0.8-5.1-0.6-7.1-2c-2.2-1.4-4.3-3.7-4.7-6.3
		c1.5,3.5,5.4,3.8,8,5.9c0.5,0.4,1,0.8,1.5,1l0,0c-0.6-0.5-1.3-1.2-1.7-1.9c-1.5-2.1-1-5.1-2.1-7.4
		C107.1,62.5,108.1,63.8,108.7,65.2"/>
	<path fill="#009CD9" d="M136.4,72.1c-0.601,0.4-1.301,0.4-1.9,0.7c0.8,0,1.6-0.3,2.4-0.4c3.1-0.5,6.6,0,8.8-2.6
		c-0.8,1.8-2.8,3.4-4.601,4c-3.1,1.2-6.3-0.3-9.3-0.8l-0.6-0.1l0,0c1.399-0.3,2.8-0.8,4-1.8c1.7-1.6,3.2-3.3,5.1-4.6
		C138.8,68.4,138.7,70.9,136.4,72.1"/>
	<path fill="#009CD9" d="M114.8,71.2c1.2,1,2.6,1.5,4.1,1.8c-0.4,0.1-0.8,0.1-1.2,0.2c-2.7,0.7-5.7,1.8-8.6,0.8
		c-1.9-0.6-3.8-2.1-4.7-3.9c2.5,2.8,6.5,1.9,9.9,2.6c0.5,0.1,0.9,0.3,1.4,0.2c-0.4-0.3-0.9-0.2-1.4-0.4c-2.6-0.9-3-3.7-4.4-5.6
		C111.6,68,113.1,69.6,114.8,71.2"/>
	<path fill="#009CD9" d="M135.1,75c2,0.7,4.601,0.5,6.4-0.7c-0.9,1.1-2.1,1.9-3.4,2.4c-2.8,1-5.699,0-7.899-1.7
		c-0.9-0.6-1.7-1.4-2.8-1.3c-0.4,0-0.801,0-1.2,0.1c2.1,1,4.1,2.4,5.899,4.1c-0.3,0.3-0.699,0.7-1.1,1c-1.7-1.9-3.7-3.7-5.8-4.7
		c-0.4,0.1-0.8,0.3-1.2,0.5c-1.8,1.1-3.5,2.5-4.8,4.3l-1.1-0.9c1.8-1.8,3.8-3.2,5.9-4.2c-2.1-0.7-3.5,1.1-5.1,2
		c-1.9,1.3-4.6,1.9-6.9,1c-1.2-0.5-2.4-1.1-3.3-2.3c1.8,1.2,4.5,1.4,6.5,0.6c2.7-1.2,5.6-2.7,8.9-2c0.5,0,1,0.5,1.5,0.1
		c2.4-0.6,5.2-0.2,7.301,0.9L135.1,75z"/>
	<rect x="47.3" y="76.2" fill="#009CD9" width="55.8" height="1.1"/>
	<rect x="146.7" y="76.2" fill="#009CD9" width="55.8" height="1.1"/>
</g>
</svg>
