<?xml version="1.0" encoding="utf-8"?>
<!-- Generator: Adobe Illustrator 16.0.0, SVG Export Plug-In . SVG Version: 6.00 Build 0)  -->
<!DOCTYPE svg PUBLIC "-//W3C//DTD SVG 1.1//EN" "http://www.w3.org/Graphics/SVG/1.1/DTD/svg11.dtd">
<svg version="1.1" id="Capa_1" xmlns="http://www.w3.org/2000/svg" xmlns:xlink="http://www.w3.org/1999/xlink" x="0px" y="0px"
	 width="250px" height="200px" viewBox="0 0 250 200" enable-background="new 0 0 250 200" xml:space="preserve">
<rect fill="#FFFFFF" width="250" height="200"/>
<g>
	<path fill="#F6BB28" d="M42,98.8c5.3,0.9,10,2.9,13.7,6.8c6.5,6.801,8.6,14.801,5.5,23.801c-3,8.899-9.4,14.3-18.8,15.6
		c-19.2,2.7-26.7-15.1-23.4-26.3c2.8-9.5,13.5-15.101,22.4-11.7c7.5,2.8,11.2,11.9,7.5,18.5c-3.5,6.2-12,7.6-16.3,2.5
		c-2-2.3-2.6-5-1.7-7.9c0.9-2.699,3-4.199,5.8-4.5c2.2-0.3,4,0.601,5.2,2.5c1.1,1.601,1.3,3.4,0.3,5.101
		c-0.8,1.399-2.6,2.399-4.2,2.1s-2.6-1.3-3-2.899c-0.1-0.5-0.1-1.2-0.8-1c-0.6,0.199-0.4,0.8-0.4,1.3c0.3,2.899,3.5,4.8,6.6,3.8
		c3.3-1,4.9-4.5,3.8-7.9c-1.3-4.3-5.9-6.3-10.3-4.6c-6.5,2.4-8.1,10.7-3.2,16.2c4.5,5,12.3,5.2,17.8,0.5c5.2-4.5,6.5-11.7,3.3-18.3
		c-4.3-8.9-14.9-12.4-24.6-8c-2.2,1-4.1,2.3-5.9,3.899c-0.4,0.3-0.6,0.8-1.6,0.9c3.5-5.2,8.2-8.2,13.9-9.8
		C36.5,98.7,39.2,98.7,42,98.8z"/>
	<path fill="#00984C" d="M42,98.8c-2.8-0.1-5.6-0.1-8.3,0.5c-0.2-11.3,1.7-22.1,7.6-31.9c3.3-5.5,7.7-9.7,13.8-12.1
		c0.4-0.1,0.8-0.2,1.1-0.4c0.8-0.4,1.5,0,1.8,0.7c0.4,0.7,0,1.3-0.6,1.7c-1.4,1-2.9,1.9-4.2,3.6c5.4-1.7,10.3-1.4,14.8,1.6
		c3.3,2.2,5.5,5.3,6.5,9.2c2,7.6-1.9,15.2-9.3,18.2c-4.4,1.7-8.8,1.6-13-0.4c-4.2-2-6.8-5.4-8.4-10.2C42.3,86.1,41.8,92.4,42,98.8z
		 M63.1,74.2c0-3.1-2.6-5.6-5.7-5.5c-3.2,0-5.8,2.8-5.9,6.1c0,3.2,2.6,5.9,5.7,5.9C60.6,80.6,63.1,77.8,63.1,74.2z"/>
	<path fill="#1E6E3F" d="M99.2,109.6c-0.4,0.801-0.8,1.7-1.1,2.5c-2,4.7-4.1,9.301-5.9,14c-0.6,1.5-1.7,1.101-2.7,1.2
		c-1,0.101-1.6-0.1-2.1-1.2c-2.4-5.6-4.8-11.199-7.3-17.1c1.7,0,3.2,0,4.7,0c0.8,0,0.8,0.7,1,1.2c1.3,3.2,2.6,6.399,4,9.899
		c1.4-3.399,2.7-6.5,3.8-9.6c0.4-1.2,1-1.5,2.2-1.5c4.2,0.1,8.4,0.1,12.6,0c1.3,0,1.7,0.4,1.6,1.6c-0.1,0.4-0.1,0.801,0,1.2
		c0.2,1.101-0.3,1.4-1.3,1.3c-0.8-0.1-1.7,0-2.5,0c-1.6,0-2.3,1-1.7,2.601c0.2,0.6,0.6,0.399,0.9,0.5c1.1,0,2.2,0.1,3.2,0
		c0.9-0.101,1.1,0.3,1.2,1.1c0.1,2.9,0.1,2.9-2.9,2.9c-0.3,0-0.6,0-0.8,0c-1.2-0.2-1.7,0.2-1.6,1.5c0,1.2,0.2,1.8,1.6,1.6
		c0.7-0.1,1.5,0.101,2.2,0c1.6-0.3,1.9,0.5,1.9,1.9c0.1,1.8-0.5,2.3-2.2,2.2c-2.2-0.2-4.4-0.101-6.6,0c-1.3,0.1-1.6-0.301-1.6-1.601
		c0.1-4.899,0-9.7,0-14.6c0-0.5,0-1.101,0-1.601C99.5,109.6,99.3,109.6,99.2,109.6z"/>
	<path fill="#1E6E3F" d="M132,94.9c-0.1,5.8-4.4,9.9-10.3,9.9c-5.8-0.1-10.1-4.4-10-10.1c0.1-5.3,4.7-9.4,10.3-9.4
		C127.6,85.4,132.1,89.7,132,94.9z M121.8,90c-2.8,0-5.1,2.2-5.1,4.8c0,3,2.3,5.4,5.2,5.4s5.1-2.4,5.1-5.4
		C126.9,92.1,124.6,90,121.8,90z"/>
	<path fill="#1E6E3F" d="M231.7,94.8c0,5.8-4.2,10-10.101,10c-5.899,0-10.1-4.2-10.1-10c0-5.3,4.5-9.5,10.1-9.5
		C227.1,85.3,231.6,89.5,231.7,94.8z M226.7,94.8c0-2.7-2.3-4.8-5.101-4.9c-2.899,0-5.199,2.2-5.199,4.9c0,2.9,2.3,5.3,5.1,5.3
		C224.4,100.2,226.7,97.9,226.7,94.8z"/>
	<path fill="#1E6E3F" d="M164.4,95.1c-0.101,5.8-4.4,9.9-10.301,9.7c-5.8-0.1-9.899-4.4-9.8-10.3c0.101-5.1,4.7-9.3,10.2-9.2
		C160.2,85.4,164.5,89.6,164.4,95.1z M154.4,90c-2.801,0-5.101,2.2-5.2,4.8c0,3,2.3,5.4,5.2,5.4c2.899,0,5.199-2.4,5.1-5.4
		C159.5,92.2,157.1,90,154.4,90z"/>
	<path fill="#1E6E3F" d="M179.9,95c-0.101-5.3,4.3-9.5,10-9.6c5.6-0.1,10.199,4.1,10.3,9.3c0.1,5.8-4.101,10.1-10,10.2
		C184.2,104.9,180,100.8,179.9,95z M195.1,95.1c0.101-2.7-2-5-4.8-5.1s-5.3,2-5.5,4.7c-0.1,2.9,2.101,5.4,4.9,5.5
		C192.6,100.3,194.9,98.1,195.1,95.1z"/>
	<path fill="#1E6E3F" d="M127.5,118c0-2.5,0-5.1,0-7.6c0-1.101,0.3-1.5,1.4-1.4c2.399,0.2,4.699-0.2,7.1,0.2
		c4.6,0.8,7.9,5,7.6,9.399c-0.3,4.7-4,8.4-8.699,8.601c-2.101,0.1-4.2,0-6.301,0.1c-1,0-1.1-0.399-1.1-1.2
		C127.5,123.4,127.5,120.7,127.5,118z M132.3,118.3c0,1.4,0,2.7,0,4.101c0,0.699,0.3,0.899,1,1c3.101,0.1,5.3-1.9,5.3-5.101
		c0-3.1-2.199-5.2-5.3-5.1c-0.7,0-1,0.2-1,1C132.3,115.4,132.3,116.9,132.3,118.3z"/>
	<path fill="#1E6E3F" d="M101.9,97.9c0,1.8-0.1,3.5,0,5.3c0,0.8-0.3,1-1.1,1c-3.7,0.1-3.7,0.2-3.7-3.5c0-4.5,0-8.9,0-13.4
		c0-1.1,0.2-1.5,1.4-1.4c2.1,0.1,4.3,0,6.5,0.1c4.4,0.2,6.8,3.9,5.3,7.8c-0.6,1.6-1.9,2.5-3.5,3.1c1.9,2.4,3.6,4.7,5.6,7.3
		c-2,0-3.8,0-5.6,0c-0.6,0-0.8-0.601-1-1c-1.2-1.8-2.4-3.7-3.6-5.5c-0.1-0.1-0.1-0.1-0.2-0.2C101.9,97.6,101.9,97.8,101.9,97.9z
		 M101.8,91.8c0.6,0.7-0.8,2.4,1.3,2.3c1.7-0.1,2.6-0.9,2.6-2.3c0-1.4-1-2.2-2.6-2.2C101,89.5,102.3,91.1,101.8,91.8z"/>
	<path fill="#1E6E3F" d="M116.7,120.8c0,1.8,0,3.601,0,5.4c0,0.8-0.2,1.1-1,1.1c-3.8,0.2-3.8,0.2-3.8-3.6c0-4.4,0-8.8,0-13.2
		c0-1.1,0.2-1.6,1.5-1.5c2.3,0.1,4.7-0.1,6.9,0.2c3.2,0.3,4.7,1.899,5.1,4.8c0.4,2.7-0.9,4.7-3.9,6c1.8,2.4,3.6,4.7,5.6,7.4
		c-2,0-3.7,0-5.399,0c-0.7,0-0.9-0.601-1.2-1.101c-1.2-1.8-2.4-3.7-3.5-5.5C116.9,120.8,116.8,120.8,116.7,120.8z M116.6,114.9
		c0.6,0.699-0.9,2.399,1.2,2.3c1.7,0,2.7-0.8,2.7-2.2s-1.1-2.3-2.8-2.3C115.8,112.8,117.2,114.2,116.6,114.9z"/>
	<path fill="#1E6E3F" d="M82.1,94.9c0-2.6,0-5.2,0-7.8c0-1,0.3-1.3,1.2-1.2c2.2,0.1,4.4,0,6.6,0c5.1,0.2,7.7,4.7,5.4,9.3
		c-1.1,2.1-3,2.8-5.2,2.9c-3.3,0.1-3.3,0.1-3.3,3.5c0,2.5,0,2.4-2.6,2.601c-0.9,0.1-1.6-0.101-1.9-0.5c-0.3-0.3-0.4-0.9-0.3-1.7
		C82.2,99.7,82.1,97.3,82.1,94.9z M86.8,93.8c0,0,0.4,0.6,1.3,0.5c2-0.1,2.9-0.7,3-2.2c0-1.6-0.8-2.2-3-2.4c-0.7,0-1.1,0.1-1.2,0.4
		C86.6,90.6,86.8,93.8,86.8,93.8z"/>
	<path fill="#1E6E3F" d="M144.7,118.2c0-2.7,0-5.3,0-8c0-1,0.3-1.3,1.3-1.2c2.6,0.1,5.2,0.1,7.8,0c1.101,0,1.601,0.3,1.4,1.4
		c-0.101,0.3-0.101,0.699,0,1c0.2,1.3-0.2,1.899-1.601,1.699c-0.699-0.1-1.5,0-2.199,0c-1.801,0-2.301,0.7-1.9,2.5
		c0.2,0.7,0.6,0.601,1,0.601c1.1,0,2.2,0.1,3.2,0c0.899-0.101,1.1,0.2,1.2,1.1c0.1,2.9,0.1,2.9-2.9,2.9c-0.3,0-0.6,0-0.8,0
		c-1.3-0.2-1.7,0.3-1.7,1.6c0,1.4,0.5,1.7,1.7,1.5c0.399-0.1,0.8,0,1.2,0c3.199,0,3.1,0,2.899,3.101c-0.1,0.8-0.399,0.899-1,0.899
		c-2.8,0-5.5,0-8.3,0c-0.9,0-1.2-0.3-1.1-1.2C144.7,123.5,144.7,120.9,144.7,118.2z"/>
	<path fill="#1E6E3F" d="M178.8,91.8c-3.2-2.3-5.899-2.3-7.7-0.2c-1.6,1.8-1.8,4.8-0.3,6.7c1.7,2.2,4.5,2.3,8,0.1c0,1.6,0,3.1,0,4.6
		c0,0.7-0.399,0.9-1,1.1c-4,1.4-8.7,0-11.3-3.399c-2.3-3.1-2.4-8,0-11.3c2.4-3.4,7-4.8,11-3.6c0.9,0.3,1.3,0.7,1.2,1.7
		C178.8,88.9,178.8,90.3,178.8,91.8z"/>
	<path fill="#1E6E3F" d="M135.7,97.1c0-2,0-4,0-5.9c0-1-0.3-1.4-1.2-1.2c-0.1,0-0.2,0-0.3,0c-0.8-0.1-1.9,0.4-2.2-0.3
		c-0.4-1-0.2-2.2-0.1-3.3c0-0.6,0.5-0.4,0.899-0.4c3.601,0,7.101,0,10.7,0c0.8,0,1,0.3,1,1c0,0.2,0,0.5,0,0.7c0,2.4,0,2.5-2.4,2.4
		c-1.3-0.1-1.6,0.4-1.6,1.6c0.1,3.8,0,7.6,0.1,11.3c0,1.1-0.3,1.3-1.3,1.3c-3.5,0-3.5,0-3.5-3.399C135.7,99.6,135.7,98.4,135.7,97.1
		z"/>
	<path fill="#1E6E3F" d="M201.3,95c0-2.7,0-5.3,0-8c0-0.9,0.3-1.1,1.2-1.1c3.7-0.1,3.7-0.1,3.7,3.5c0,3.2,0,6.3,0,9.5
		c0,0.9,0.2,1.4,1.2,1.3c0.699-0.1,1.5,0,2.199,0c2.2,0,2.101,0,2.301,2.2c0.1,1.5-0.301,1.899-1.801,1.8
		c-2.399-0.101-4.8-0.101-7.1,0c-1.4,0.1-1.6-0.4-1.5-1.601C201.4,100.1,201.3,97.5,201.3,95z"/>
	<path fill="#00984C" d="M196.6,124.3c0-1,0-2.1,0-3.1c0-0.4-0.1-0.9,0.601-0.9s0.7,0.4,0.7,0.9c0,1.7,0,3.399,0,5.1
		c0,0.4,0.199,0.8-0.301,1s-0.8-0.1-1.1-0.5c-1-1.3-1.9-2.6-3.3-3.8c0,1.1,0,2.2,0,3.3c0,0.4,0.1,1-0.601,1
		c-0.8,0.101-0.699-0.5-0.699-1c0-1.7,0-3.399,0-5.1c0-0.3-0.2-0.8,0.399-1c0.5-0.101,0.7,0.2,1,0.5c0.9,1.3,1.9,2.5,2.8,3.7
		C196.3,124.3,196.4,124.3,196.6,124.3z"/>
	<path fill="#00984C" d="M175.4,127.3c-2,0-3.4-1.5-3.5-3.6c0-2.101,1.399-3.601,3.399-3.601s3.5,1.4,3.5,3.5
		C178.8,125.8,177.4,127.3,175.4,127.3z M177.4,123.7c0-1.3-0.801-2.3-1.9-2.3c-1.2-0.101-2.2,1-2.1,2.3c0.1,1.2,0.5,2.2,1.899,2.3
		C176.5,126.1,177.4,125.2,177.4,123.7z"/>
	<path fill="#00984C" d="M179.9,123.6c0-0.5,0-1,0-1.5c-0.101-1.199,0-2.1,1.6-1.8c1.6,0.2,2.4,0.9,2,2.3
		c-0.2,0.801,0.1,1.2,0.4,1.801c0.5,0.8,0.399,1.8-0.4,2.399c-1,0.8-2.3,0.5-3.4,0.4c-0.1,0-0.199-0.7-0.199-1.101
		C179.9,125.1,179.9,124.4,179.9,123.6z M181.9,126.1c0.6-0.1,1-0.3,0.899-1c0-0.6-0.399-0.899-1-0.899c-0.7,0-0.6,0.5-0.6,1
		C181.2,125.6,181.2,126.1,181.9,126.1z M181.6,121.4c-0.6,0.199-0.399,0.699-0.399,1.1c0,0.3,0,0.8,0.5,0.6c0.5-0.1,0.7-0.5,0.7-1
		C182.3,121.7,182,121.5,181.6,121.4z"/>
	<path fill="#00984C" d="M216.3,127.1c-2.1,0.7-2-1.5-3-2.1c-0.399,0.5-0.1,1.1-0.2,1.6c-0.1,0.4-0.1,0.601-0.6,0.601
		s-0.8-0.2-0.8-0.7c0-1.9,0-3.7,0-5.6c0-0.2,0.1-0.601,0.2-0.601c1.1-0.2,2.3-0.3,3.3,0.4c0.899,0.7,1.1,1.899,0.399,2.6
		c-1.3,1.2-0.399,1.9,0.101,2.7C215.9,126.4,216.1,126.6,216.3,127.1z M213.1,122.3c0.101,0.4-0.199,1,0.5,1.101
		c0.601,0.1,0.9-0.4,1-0.9c0-0.6-0.199-1-0.8-1.1C213,121.3,213.1,121.9,213.1,122.3z"/>
	<path fill="#00984C" d="M220.1,127.2c-0.6,0-0.6-0.3-0.399-0.8c0.7-1.9,1.5-3.801,2.2-5.7c0.199-0.4,0.399-0.7,0.8-0.7
		c0.5,0,0.6,0.4,0.8,0.8c0.7,1.8,1.3,3.601,2,5.4c0.1,0.3,0.4,0.7,0,0.899c-0.3,0.101-0.8,0.101-1.1-0.199
		c-1.801-1.7-1.801-1.7-3.5-0.101C220.6,127.1,220.4,127.2,220.1,127.2z M222.6,122.5c-0.399,0.7-0.899,1.3-0.5,2
		c0.101,0.1,0.801,0.2,0.9,0.1C223.7,123.8,222.7,123.2,222.6,122.5z"/>
	<path fill="#00984C" d="M188,125.7c-0.8-0.101-1.4,0-1.6,0.8c-0.2,0.7-0.801,0.9-1.301,0.7c-0.6-0.3,0-0.8,0.101-1.101
		c0.6-1.6,1.2-3.199,1.8-4.699c0.2-0.5,0.2-1.2,1-1.101c0.7,0,0.7,0.601,0.9,1.101c0.6,1.6,1.199,3.1,1.699,4.699
		c0.101,0.4,0.801,0.9,0,1.2c-0.5,0.2-1,0-1.199-0.6C189.3,125.7,188.6,125.5,188,125.7z M187.9,122.5c-0.4,0.6-0.801,1.3-0.601,2
		c0.101,0.3,0.9,0.3,1,0C188.8,123.8,188.1,123.2,187.9,122.5z"/>
	<path fill="#00984C" d="M210.8,126.7c0,0.2,0,0.399-0.3,0.399c-0.4,0-0.7,0-1-0.3c-1.3-1.6-2.1-1.6-3.3,0c-0.4,0.5-0.8,0.5-1.2,0.4
		c-0.5-0.2-0.1-0.7,0-1c0.6-1.7,1.3-3.5,2-5.2c0.3-0.8,1-1.3,1.4-0.5C209.4,122.4,210,124.6,210.8,126.7z M208.6,124.6
		c-0.199-0.899-0.3-1.6-1-2.399C207.8,123.3,206,124.5,208.6,124.6z"/>
	<path fill="#00984C" d="M160,127c0.8-2,1.5-3.9,2.2-5.8c0.2-0.4,0.1-1.101,0.899-1.101c0.7,0,0.801,0.5,0.9,1
		c0.6,1.7,1.3,3.4,1.9,5.101c0.1,0.3,0.5,0.8,0,1c-0.4,0.1-0.801,0.1-1.2-0.4c-1.101-1.6-2.101-1.6-3.2-0.1
		C161.1,127.3,160.6,127.3,160,127z M163.1,122.5c-0.3,0.7-0.899,1.3-0.5,2c0.101,0.1,0.801,0.2,0.9,0
		C164,123.8,163.3,123.2,163.1,122.5z"/>
	<path fill="#00984C" d="M203.8,121.8c-1.1-0.5-2.2-0.7-3,0.4c-0.7,1-0.7,2,0,3c0.8,1.1,1.9,1,3,0.399c0.4,1.2-0.1,1.7-1.2,1.7
		c-1.399,0.101-2.399-0.5-3.1-1.7c-0.8-1.399-0.7-2.8,0.2-4.1c0.8-1.1,1.899-1.5,3.2-1.4C204,120.3,204,120.9,203.8,121.8z"/>
	<path fill="#00984C" d="M171.2,124.9c0,1.1-0.4,1.899-1.3,2.3c-0.9,0.3-1.801,0.2-2.5-0.5c-0.301-0.3-0.5-0.601-0.2-1
		c0.399-0.4,0.6-0.3,0.899,0.1c0.5,0.5,1.101,0.7,1.601,0c0.5-0.8,0-1.2-0.7-1.6c-0.7-0.3-1.4-0.5-1.7-1.3
		c-0.399-0.9-0.1-1.801,0.7-2.4s1.7-0.4,2.5,0c0.3,0.1,0.4,0.4,0.3,0.7c-0.1,0.2-0.399,0.5-0.7,0.3c-0.6-0.4-1.3-0.4-1.5,0.3
		c-0.199,0.8,0.601,0.9,1.101,1.2C170.6,123.4,171.2,123.9,171.2,124.9z"/>
	<path fill="#00984C" d="M217.3,123.7c0-0.9,0-1.8,0-2.7c0-0.4,0-0.8,0.601-0.8c0.5,0,0.8,0.1,0.8,0.6c0,1.9,0,3.8,0,5.7
		c0,0.5-0.3,0.6-0.8,0.6s-0.601-0.3-0.601-0.699C217.3,125.6,217.3,124.6,217.3,123.7z"/>
	<path fill="#F6BB28" d="M19.8,109.6c-0.1-0.1-0.1-0.1-0.2-0.199c0.1-0.101,0.2-0.101,0.3-0.2c0.2-0.101,0.3,0.1,0.2,0.2
		C20,109.5,19.9,109.6,19.8,109.6z"/>
</g>
</svg>
