<?xml version="1.0" encoding="utf-8"?>
<!-- Generator: Adobe Illustrator 16.0.0, SVG Export Plug-In . SVG Version: 6.00 Build 0)  -->
<!DOCTYPE svg PUBLIC "-//W3C//DTD SVG 1.1//EN" "http://www.w3.org/Graphics/SVG/1.1/DTD/svg11.dtd">
<svg version="1.1" id="Capa_1" xmlns="http://www.w3.org/2000/svg" xmlns:xlink="http://www.w3.org/1999/xlink" x="0px" y="0px"
	 width="250px" height="200px" viewBox="0 0 250 200" enable-background="new 0 0 250 200" xml:space="preserve">
<rect fill="#FFFFFF" width="250" height="200"/>
<g>
	<path fill="#1D516B" d="M66.1,89.4l4.2,0.7l0.9-1.2l0.4,0.1l-0.7,4.8l-0.5-0.1l-0.3-1.5l-8.9-1.4L60.4,92h-0.5l0.8-4.9l0.4,0.1
		l0.3,1.5l3.8,0.6l1-4.8l-3.7-1l-0.9,1.2l-0.5-0.1l1.2-4.8l0.5,0.1l0.3,1.5l8.8,2.2l0.8-1.2l0.5,0.1L72,87.3l-0.4-0.1l-0.3-1.5
		l-4.2-1L66.1,89.4L66.1,89.4z M70.3,75.9l4.1,1.7l1.4-3L74.5,73l0.3-0.6l2.3,1.2c0,0-1.7,3.6-3.3,7.5l-0.4-0.2v-1.5L65,76.1l-1.1,1
		L63.5,77c1.7-4.3,3.5-8.2,3.5-8.2l2.4,1.1l-0.2,0.6h-2.1l-1.4,3.7l3.9,1.5l1.2-2.6L69.7,72l0.3-0.6l3.4,1.5l-0.3,0.6h-1.5
		L70.3,75.9L70.3,75.9z M83,59.4l2.3,2c-0.7,1.5-1.2,2.4-1.9,3.2c-2.2,2.7-5.2,3-7.8,0.8c-2.7-2.2-3.4-5.2-0.7-8.4
		c0.6-0.7,1.5-1.4,2.6-2.4l0.2-0.2l2.1,1.8l-0.5,0.6L77.1,56c-0.3,0.2-0.5,0.4-0.8,0.6c-2.3,2.5-1.9,5,0.6,7
		c2.2,1.8,4.6,1.7,6.3-0.4c0.3-0.4,0.4-0.7,0.4-0.7l-2-1.7l-1.3,0.7l-0.4-0.3l3.1-3.7l0.4,0.3L83,59.4z M87.6,58.5l-5.8-6.9
		l-1.4,0.5L80,51.7l3.8-3.2l0.3,0.3l-0.7,1.4l5.9,7l2.2-1.8L91,53.3l0.5-0.4l1.7,2.3c0,0-3,2.4-5.9,5L87,59.8L87.6,58.5z M91.4,49.9
		c-1.8-3.1-1.1-6.3,2.1-8c3-1.6,5.7-0.5,7.2,2.3c1.6,3.1,0.8,6.3-2.1,8C95.8,53.6,93,52.7,91.4,49.9 M93.1,48.5
		c1.6,2.6,3.7,3.6,5.2,2.7c1.5-0.8,1.8-3.2,0.5-5.8c-1.2-2.5-3.2-3.7-5.1-2.7C91.6,43.8,91.6,46,93.1,48.5 M105.5,47.6l-2.9-8.6
		l-1.5-0.2l-0.1-0.4l5.2-1.7c1.2-0.4,2-0.4,2.7,0c0.7,0.3,1.1,0.8,1.3,1.5c0.5,1.4-0.4,2.7-2.3,3.6c2.2-0.6,3.7,0,4.2,1.6
		c0.3,0.9,0.1,1.8-0.4,2.5c-0.6,0.7-1.3,1.1-2.7,1.6l-4.4,1.5l-0.1-0.4L105.5,47.6z M106,42.1l0.7-0.2c1.3-0.4,1.9-1.5,1.5-2.8
		c-0.4-1.3-1.3-1.8-2.6-1.4l-1,0.4L106,42.1z M107.6,47.1l0.6-0.2c0.9-0.3,1.3-0.5,1.6-1c0.3-0.5,0.4-1.1,0.2-1.8
		c-0.4-1.4-1.5-1.9-3-1.4l-0.8,0.3L107.6,47.1z M116.7,41.4l-0.9,3.3l1.3,0.4v0.5l-3.7,0.6v-0.5l1.2-0.7l3.3-10.8l0.8-0.1l5,9.9
		l1.3,0.4v0.5l-4.8,0.3v-0.5l1.2-0.7l-1.4-3L116.7,41.4z M116.9,40.6l2.8-0.3l-1.7-3.6L116.9,40.6z M127.5,44.1l0.8-9l-1.3-0.7v-0.5
		c2.6,0.1,4.9,0.3,4.9,0.3v0.5l-1.4,0.5l-0.8,9.2l2.6,0.3l1.2-1.9l0.7,0.1l-0.5,2.8c0,0-4.2-0.5-7.601-0.7v-0.5L127.5,44.1z
		 M145.9,48.3l1.6-1.8l0.7,0.2l-1,2.5h-0.3c-1.5-0.1-2.4-0.3-3.301-0.6c-3.199-1.1-4.399-3.8-3.399-7c1-3.4,3.6-4.8,7.7-3.5
		c1,0.3,1.899,0.8,3,1.6l-0.9,2.6l-0.7-0.2v-2.4c0,0-0.399-0.2-0.8-0.4c-3.5-1.2-5.3,0.4-6.2,3c-0.899,2.7,0.101,4.9,2.601,5.8
		C145.2,48.1,145.4,48.2,145.9,48.3 M165.9,58.8l7.8-2.9l2.3,2.7l-0.3,0.3l-1.4-0.6l-6.7,5.9l0.601,1.4l-0.3,0.3
		c-1.5-1.8-3-3.5-3-3.5l0.3-0.3l1.3,0.6l5.4-4.9l-8.601,3.1l-0.3-0.3l3.2-8.6l-5,5.4l0.5,1.4l-0.3,0.3l-3-2.5l0.3-0.3l1.399,0.6
		l6.2-6.5l-0.6-1.4l0.3-0.3l2.7,2.4L165.9,58.8z M174.5,67.6l-3,1.9l0.2,1.5l-0.4,0.2c-1.3-2-2.7-4.1-2.7-4.1l0.4-0.2l1.2,0.8
		l7.399-5l-0.199-1.4l0.399-0.2l2.601,4c0.899,1.4,1.1,2.2,1.1,3.1c-0.1,0.9-0.5,1.7-1.4,2.2c-1.699,1.1-3.699,0.3-5.1-1.9
		L174.5,67.6z M175.3,67.6c0.5,0.8,0.8,1.1,1.3,1.3c0.7,0.2,1.5,0.2,2.2-0.3c0.7-0.4,1.101-1,1.2-1.6s0-1-0.4-1.7l-0.6-0.9l-4.1,2.7
		L175.3,67.6z M178.3,75.4H174.9l-0.101,1.4L174.4,77c-0.7-1.6-1.601-3.4-1.601-3.4l0.4-0.2l1,1l11.3,0.2l0.3,0.9l-8.2,7.4v1.4
		l-0.399,0.2c-0.7-2.3-1.5-4.4-1.5-4.4l0.399-0.2l1,1l2.5-2.2L178.3,75.4z M179.1,75.4l1,2.6l3.101-2.6H179.1z M179.5,91.8l2.4,0.4
		l0.1,0.7l-2.7,0.4l-0.1-0.2c-0.7-1.4-1-2.2-1.2-3.2c-0.7-3.4,1-5.6,4.3-6.4c3.5-0.9,6.2,1.1,6.9,4.8c0.2,1,0.2,2.2,0.1,3.6
		l-2.7,0.5l-0.1-0.7l2-1.2c0-0.3,0-0.6-0.1-1c-0.601-3.1-2.801-4.5-5.7-3.7c-2.8,0.7-4.2,2.5-3.7,5.1
		C179.3,91.1,179.4,91.3,179.5,91.8L179.5,91.8z M189.3,100.4h-9.1l-0.601,1.8h-0.5c0.101-3,0-5.7,0-5.7h0.5l0.601,1.8h9.1V96
		l-2.3-0.8v-0.7h3.1c0,0,0.301,4.9,0,9.7H187v-0.7l2.3-0.8V100.4z M60.5,98.6h9.1l0.6-1.8h0.5c-0.1,2.9,0,5.7,0,5.7h-0.5l-0.6-1.8
		h-9.1v2.3l2.3,0.8v0.7h-3.1c0,0-0.3-5,0-9.7h3.1v0.7l-2.3,0.8V98.6z M151.2,45.7c1.8-3.2,4.899-4.1,8-2.2
		c2.899,1.8,3.399,4.6,1.6,7.3c-1.899,2.9-5.1,3.9-8,2.2C150.2,51.4,149.6,48.6,151.2,45.7 M153.3,46.5c-1.399,2.6-1.2,4.9,0.3,5.9
		c1.5,0.9,3.601,0,5.2-2.5c1.5-2.3,1.601-4.6-0.3-5.8C156.6,42.9,154.7,43.9,153.3,46.5"/>
	<path id="XMLID_65_" fill="#1D516B" d="M72.5,143c4.2,3.3,9.8,2.9,14.5,4.8c-4.4-4.2-5.1-10.5-7-16c-1.3-3.399-3.2-6.5-5.3-9.5
		c2.3,5.5,1.2,12.7,4.3,17.8c0.9,1.7,2.3,3.2,3.5,4.5l-0.1,0.101c-1.1-0.601-2.1-1.5-3.1-2.5c-5.3-5.101-13.2-5.9-16.4-14.3
		C63.8,134,68,139.5,72.5,143"/>
	<path id="XMLID_64_" fill="#1D516B" d="M107.2,152.1c0.7,0,1.2-0.199,1.2-0.199c-4.1-0.9-7.6-1.7-11.1-4.601
		c-4.7-3.899-8.2-7.8-13.4-11c0.7,0.4,3.6,6.4,6,10c1.7,2.5,4.5,3.9,6.9,4.5c2.1,0.5,2.5,0.7,2.5,0.7s-0.3,0.2-1.1,0
		c0,0-6.8-1.4-10.5-1.4c-14.7,0-18.6-5.6-18.6-5.6c4.4,7.9,13.4,10.9,19.3,10.9C96.8,155.4,103.2,152.1,107.2,152.1"/>
	<path id="XMLID_63_" fill="#1D516B" d="M161.3,155.3c5.9,0,14.9-2.899,19.2-10.899c0,0-3.8,5.6-18.6,5.6c-3.7,0-10.5,1.4-10.5,1.4
		c-0.801,0.199-1.101,0-1.101,0s0.4-0.2,2.5-0.7c2.4-0.601,5.2-2,6.9-4.5c2.5-3.601,5.399-9.601,6-10c-5.101,3.2-8.7,7.1-13.4,11
		c-3.5,2.899-7,3.7-11.1,4.6c0,0,0.5,0.2,1.2,0.2C146.6,152.1,152.9,155.3,161.3,155.3"/>
	<path id="XMLID_62_" fill="#1D516B" d="M69.8,131.8c1.4,1.2,4.4,4,5,4.8c0,0-0.3-1.1-0.7-2.5c-0.3-1.399-0.8-4.8-2.2-7.699
		c-1.1-2.301-5.6-9.801-6.4-13.9C65.4,112.5,62.2,125.3,69.8,131.8"/>
	<path id="XMLID_61_" fill="#1D516B" d="M162.7,147.8c4.8-1.899,10.3-1.5,14.5-4.8c4.5-3.5,8.7-9,9.5-15.2
		c-3.2,8.5-11.101,9.2-16.4,14.3c-1,1-2,1.9-3.1,2.5l-0.101-0.1c1.2-1.3,2.601-2.8,3.5-4.5c3.101-5.1,2-12.3,4.301-17.8
		c-2.101,3-4,6.1-5.301,9.5C167.9,137.3,167.1,143.6,162.7,147.8"/>
	<path id="XMLID_60_" fill="#1D516B" d="M151,157.1c-7.3-3-15-6.8-23.8-5c-1,0.2-1.8,0.4-2.7,0.4s-1.7-0.2-2.7-0.4
		c-8.8-1.8-16.5,2-23.8,5c-5.5,2-12.6,1.7-17.4-1.399c2.4,2.8,5.6,4.5,8.9,5.7c6.1,2.3,13.4,0.699,18.4-2.601
		c4.3-2.3,8.1-6.8,13.8-5.1c-5.8,2.5-11.1,6.1-16,10.6l3,2.3c0,0,5.7-7.6,15.8-12.199c10.1,4.6,15.8,12.199,15.8,12.199l3-2.3
		c-4.8-4.6-10.1-8.1-16-10.6c5.7-1.7,9.4,2.8,13.8,5.1c5.101,3.3,12.301,4.9,18.5,2.601c3.301-1.2,6.5-2.9,8.9-5.7
		C163.6,158.8,156.5,159.2,151,157.1"/>
	<path id="XMLID_59_" fill="#1D516B" d="M179.9,131.8c7.5-6.399,4.3-19.3,4.3-19.3c-0.9,4.1-5.4,11.6-6.5,13.9
		c-1.4,2.899-1.9,6.3-2.2,7.699c-0.3,1.4-0.7,2.5-0.7,2.5C175.5,135.8,178.5,133,179.9,131.8"/>
	<g>
		<g>
			<defs>
				<path id="SVGID_1_" d="M152.5,82.3c-0.1,0-0.3,0.1-0.6,0.4c-1.801,1.8-4.101,3.4-6.9,4.7c-0.6,0.3-0.8,0.6-0.8,0.9
					c0,0.2,0.1,0.4,0.2,0.7c2.1,5.6,3.6,11.2,4.3,16.8c0,0,0.1,1.101,0.3,1.3c0.2,0.2,1-0.3,1.1-0.3c3.2-1.899,6.2-4.399,8-6.1
					c0.7-0.7,0.9-1.2,0.9-1.9c0-0.4-0.1-0.8-0.2-1.4c-1.3-5.2-3.2-10.2-5.8-14.6C152.9,82.4,152.7,82.3,152.5,82.3L152.5,82.3z"/>
			</defs>
			<clipPath id="SVGID_2_">
				<use xlink:href="#SVGID_1_"  overflow="visible"/>
			</clipPath>
			
				<radialGradient id="XMLID_2_" cx="-66.3569" cy="-275.6621" r="9.6001" gradientTransform="matrix(5.155 0 0 8.248 484.4655 2357.8384)" gradientUnits="userSpaceOnUse">
				<stop  offset="0" style="stop-color:#5A80A7"/>
				<stop  offset="0.5751" style="stop-color:#396787"/>
				<stop  offset="1" style="stop-color:#1D526C"/>
			</radialGradient>
			<rect id="XMLID_58_" x="144.2" y="82.3" clip-path="url(#SVGID_2_)" fill="url(#XMLID_2_)" width="14.8" height="25.101"/>
		</g>
	</g>
	<g>
		<g>
			<defs>
				<path id="SVGID_3_" d="M144.9,112.5c-5.601,2-11.601,3-18,3.2c-1.2,0.1-1.2,0.399-1.2,1.3c0,5.6-0.2,10.9-0.3,15.7
					c0,0,0,0.5,0.1,0.7c0.2,0.199,0.6,0.1,0.6,0.1c6.301-0.4,12.4-1.8,17.9-4c0.8-0.3,1-0.8,1.2-1.8c1.5-6,1.1-14.101,1.1-14.101
					s0-1-0.3-1.199c-0.1,0-0.2-0.101-0.3-0.101C145.4,112.3,144.9,112.5,144.9,112.5"/>
			</defs>
			<clipPath id="SVGID_4_">
				<use xlink:href="#SVGID_3_"  overflow="visible"/>
			</clipPath>
			
				<radialGradient id="XMLID_3_" cx="-66.4604" cy="-286.5439" r="9.6011" gradientTransform="matrix(5.1616 0 0 5.1616 485.4583 1563.0796)" gradientUnits="userSpaceOnUse">
				<stop  offset="0" style="stop-color:#5A80A7"/>
				<stop  offset="0.5751" style="stop-color:#396787"/>
				<stop  offset="1" style="stop-color:#1D526C"/>
			</radialGradient>
			<rect id="XMLID_56_" x="125.3" y="112.3" clip-path="url(#SVGID_4_)" fill="url(#XMLID_3_)" width="21.4" height="21.3"/>
		</g>
	</g>
	<g>
		<g>
			<defs>
				<path id="SVGID_5_" d="M133.1,69.2c3.601,4.3,6.7,9.4,9.301,14.9c0.3,0.6,0.5,0.9,0.6,0.9c0.2,0.1,0.6-0.1,0.9-0.2
					c2.5-1.3,4.8-2.9,6.3-4.5c0.3-0.3,0.399-0.5,0.399-0.8v-0.2c0-0.3-0.199-0.6-0.5-1.1c-3.399-4.7-7.399-8.4-11.8-11.2
					C137.1,67.9,135.2,68.7,133.1,69.2"/>
			</defs>
			<clipPath id="SVGID_6_">
				<use xlink:href="#SVGID_5_"  overflow="visible"/>
			</clipPath>
			
				<radialGradient id="XMLID_4_" cx="-66.1719" cy="-286.6421" r="9.5972" gradientTransform="matrix(5.1441 0 0 5.1441 482.842 1558.561)" gradientUnits="userSpaceOnUse">
				<stop  offset="0" style="stop-color:#5A80A7"/>
				<stop  offset="0.5751" style="stop-color:#396787"/>
				<stop  offset="1" style="stop-color:#1D526C"/>
			</radialGradient>
			<rect id="XMLID_28_" x="133.1" y="67" clip-path="url(#SVGID_6_)" fill="url(#XMLID_4_)" width="17.601" height="18.1"/>
		</g>
	</g>
	<g>
		<g>
			<defs>
				<path id="SVGID_7_" d="M125.2,70.1c0.2,6.1,0.3,12.1,0.399,17.9c0,0.5,0.101,0.8,0.301,1c0.1,0.1,0.399,0.2,0.699,0.2
					c4,0,9.7-1.2,13-2.5c0.301-0.1,0.5-0.2,0.601-0.5c0.1-0.3-0.101-0.8-0.101-0.8c-2.399-6-5.5-11.5-8.6-15.8
					C129.7,69.8,126.4,70.1,125.2,70.1"/>
			</defs>
			<clipPath id="SVGID_8_">
				<use xlink:href="#SVGID_7_"  overflow="visible"/>
			</clipPath>
			
				<radialGradient id="XMLID_6_" cx="-66.3057" cy="-281.7368" r="9.6047" gradientTransform="matrix(5.1517 0 0 6.182 483.9632 1825.8214)" gradientUnits="userSpaceOnUse">
				<stop  offset="0" style="stop-color:#5A80A7"/>
				<stop  offset="0.5751" style="stop-color:#396787"/>
				<stop  offset="1" style="stop-color:#1D526C"/>
			</radialGradient>
			<rect id="XMLID_26_" x="125.2" y="69.5" clip-path="url(#SVGID_8_)" fill="url(#XMLID_6_)" width="15" height="19.6"/>
		</g>
	</g>
	<g>
		<g>
			<defs>
				<path id="SVGID_9_" d="M143.7,132.2c-0.101,0-0.3,0-0.8,0.2c-7,2.199-13,2.699-16.9,2.699c-0.5,0-0.7,0.2-0.7,0.801L125,141
					c0,0,7.8,0.2,15.8-3.2c1.101-1.5,2-3.2,2.8-5.1c0.101-0.2,0.101-0.4,0.2-0.5H143.7L143.7,132.2z"/>
			</defs>
			<clipPath id="SVGID_10_">
				<use xlink:href="#SVGID_9_"  overflow="visible"/>
			</clipPath>
			
				<radialGradient id="XMLID_8_" cx="-66.5962" cy="-286.5161" r="9.6001" gradientTransform="matrix(5.1704 0 0 5.1704 486.7664 1565.3035)" gradientUnits="userSpaceOnUse">
				<stop  offset="0" style="stop-color:#5A80A7"/>
				<stop  offset="0.5751" style="stop-color:#396787"/>
				<stop  offset="1" style="stop-color:#1D526C"/>
			</radialGradient>
			<rect id="XMLID_24_" x="125" y="132.2" clip-path="url(#SVGID_10_)" fill="url(#XMLID_8_)" width="18.8" height="9.1"/>
		</g>
	</g>
	<g>
		<g>
			<defs>
				<path id="SVGID_11_" d="M159.9,103.7c-1.801,1.8-5.301,4.3-9.2,6.399c-1.3,0.7-1.4,1.101-1.4,2.301
					c0.101,6.399-0.7,11.3-2.1,15.5c0,0-0.101,0.3,0.3,0.1s6.2-3,10.2-7c1.399-1.3,2.399-3.3,2.6-5.4c0.8-7.1-0.1-11.899-0.1-11.899
					C160,103.7,160,103.7,159.9,103.7C160,103.7,159.9,103.7,159.9,103.7"/>
			</defs>
			<clipPath id="SVGID_12_">
				<use xlink:href="#SVGID_11_"  overflow="visible"/>
			</clipPath>
			
				<radialGradient id="XMLID_10_" cx="-66.5986" cy="-274.0703" r="9.6007" gradientTransform="matrix(5.1699 0 0 9.0474 486.6924 2563.6367)" gradientUnits="userSpaceOnUse">
				<stop  offset="0" style="stop-color:#5A80A7"/>
				<stop  offset="0.5751" style="stop-color:#396787"/>
				<stop  offset="1" style="stop-color:#1D526C"/>
			</radialGradient>
			<rect id="XMLID_22_" x="147" y="103.7" clip-path="url(#SVGID_12_)" fill="url(#XMLID_10_)" width="13.9" height="24.5"/>
		</g>
	</g>
	<g>
		<g>
			<defs>
				<path id="SVGID_13_" d="M156.5,73.1c0,1.6-0.4,3.3-1.1,4.9c-0.301,0.6-0.4,1-0.4,1.3c0,0.3,0.2,0.5,0.4,0.9
					c0,0,4.199,5.8,6.6,15.3c2.6-4.6,2.6-8.4,2.6-8.4c0-0.2,0-0.5,0-0.6c-1.199-5.2-4-10.2-8.199-14.8
					C156.5,72.2,156.5,72.6,156.5,73.1"/>
			</defs>
			<clipPath id="SVGID_14_">
				<use xlink:href="#SVGID_13_"  overflow="visible"/>
			</clipPath>
			
				<radialGradient id="XMLID_11_" cx="-66.5181" cy="-269.9326" r="9.5983" gradientTransform="matrix(5.1651 0 0 12.0519 485.9721 3337.3206)" gradientUnits="userSpaceOnUse">
				<stop  offset="0" style="stop-color:#5A80A7"/>
				<stop  offset="0.5751" style="stop-color:#396787"/>
				<stop  offset="1" style="stop-color:#1D526C"/>
			</radialGradient>
			<rect id="XMLID_20_" x="155.1" y="71.8" clip-path="url(#SVGID_14_)" fill="url(#XMLID_11_)" width="9.601" height="23.7"/>
		</g>
	</g>
	<g>
		<g>
			<defs>
				<path id="SVGID_15_" d="M83.2,99.3c0,22.3,19,41.8,40.8,41.8c0-0.399-0.3-5.199-0.3-5.199c0-0.5-0.2-0.7-0.8-0.801
					c0,0-9.5-0.699-12.7-2.399c-0.1-0.101-0.1-0.2,0.1-0.2c0,0,6.4,1.1,12.6,1.1c0,0,0.7,0,0.7-0.699c0-0.7-0.3-15.801-0.3-15.801
					c0-1.1-0.2-1.3-1.3-1.399c-6.6-0.3-13.1-1.7-18.8-4.101c-0.1-0.1-0.2-0.1-0.3,0c-0.1,0.101-0.1,0.301-0.1,0.301
					c-0.5,7,0.3,13.899,0.3,13.899c0,0.101,0,0.2-0.1,0.2s-0.2-0.1-0.2-0.1c-1-3.801-1.5-7.9-1.5-12.2c0-0.3,0-2.101,0-2.101
					c0-0.5-0.2-0.8-0.6-1c-2.7-1.3-5-3-7.2-4.699c0,0-0.2-0.101,0-0.301c0.1-0.1,0.2,0,0.2,0c2.2,1.4,4.7,2.601,7.3,3.601h0.3
					c0.2-0.101,0.1-0.3,0.2-0.601c0.4-6.5,2.2-13.3,4.7-19.8c0.1-0.1,0.1-0.2,0.1-0.3c0-0.2-0.1-0.3-0.5-0.5
					c-4.1-1.8-7.2-4.2-9.3-6.9c0,0-0.1-0.1,0-0.2s0.3,0,0.3,0c2.3,2.2,5.7,4.1,9.6,5.6c0.2,0.1,0.3,0.1,0.4,0.1
					c0.2,0,0.3-0.1,0.6-0.7c2.6-6.1,6.1-11.9,10-16.7c-3.3-0.8-6.7-2.6-7.5-4.5c0,0-0.1-0.2,0-0.3c0.2-0.1,0.3,0.1,0.3,0.1
					c3.7,4,14.3,3.7,14.3,3.7c4.4,0,13.4-1.5,13.7-5.1v-0.3c-0.2-3.3-5.101-5-13.8-5.1C97.6,57.6,83.2,80.8,83.2,99.3"/>
			</defs>
			<clipPath id="SVGID_16_">
				<use xlink:href="#SVGID_15_"  overflow="visible"/>
			</clipPath>
			
				<radialGradient id="XMLID_13_" cx="-66.4707" cy="-277.2842" r="9.6007" gradientTransform="matrix(5.1617 0 0 7.5705 485.4582 2183.3569)" gradientUnits="userSpaceOnUse">
				<stop  offset="0" style="stop-color:#5A80A7"/>
				<stop  offset="0.5751" style="stop-color:#396787"/>
				<stop  offset="1" style="stop-color:#1D526C"/>
			</radialGradient>
			<rect id="XMLID_18_" x="83.2" y="57.6" clip-path="url(#SVGID_16_)" fill="url(#XMLID_13_)" width="55.1" height="83.5"/>
		</g>
	</g>
	<g>
		<g>
			<defs>
				<path id="SVGID_17_" d="M141.3,62.6c0,1.1-0.5,2.2-1.399,3.2c4.699,2.7,8.6,5.9,12,9.9c0,0,0.5,0.7,0.899,0.7
					c0.2,0,0.4-0.6,0.4-0.6c0.7-1.9,0.899-4.4,0.1-6.3c-0.7-1.7-3.1-3.5-3.1-3.5c-3.5-2.8-7.5-4.5-9.4-5.2
					C141.1,61.3,141.3,62,141.3,62.6"/>
			</defs>
			<clipPath id="SVGID_18_">
				<use xlink:href="#SVGID_17_"  overflow="visible"/>
			</clipPath>
			
				<radialGradient id="XMLID_15_" cx="-66.4009" cy="-280.7393" r="9.6017" gradientTransform="matrix(5.1577 0 0 6.4472 484.8704 1894.0942)" gradientUnits="userSpaceOnUse">
				<stop  offset="0" style="stop-color:#5A80A7"/>
				<stop  offset="0.5751" style="stop-color:#396787"/>
				<stop  offset="1" style="stop-color:#1D526C"/>
			</radialGradient>
			<rect id="XMLID_16_" x="139.8" y="60.8" clip-path="url(#SVGID_18_)" fill="url(#XMLID_15_)" width="14.2" height="15.6"/>
		</g>
	</g>
	<g>
		<g>
			<defs>
				<path id="SVGID_19_" d="M164,98.4c-0.8,1.2-1,2.1-1,2.9c0.2,2.8,0.2,5.3,0.2,5.3c0,2.9-0.3,5.7-0.8,8.301
					c2.3-4,4.199-9.801,4.199-16.5c0-1.9-0.1-3.8-0.5-5.8C165.8,94.6,165.1,96.6,164,98.4"/>
			</defs>
			<clipPath id="SVGID_20_">
				<use xlink:href="#SVGID_19_"  overflow="visible"/>
			</clipPath>
			
				<radialGradient id="XMLID_17_" cx="-66.335" cy="-265.7988" r="9.5986" gradientTransform="matrix(5.1539 0 0 18.0387 484.3019 4878.9126)" gradientUnits="userSpaceOnUse">
				<stop  offset="0" style="stop-color:#5A80A7"/>
				<stop  offset="0.5751" style="stop-color:#396787"/>
				<stop  offset="1" style="stop-color:#1D526C"/>
			</radialGradient>
			<rect id="XMLID_14_" x="162.4" y="92.5" clip-path="url(#SVGID_20_)" fill="url(#XMLID_17_)" width="4.199" height="22.4"/>
		</g>
	</g>
	<g>
		<g>
			<defs>
				<path id="SVGID_21_" d="M147,130.8c-0.7,0.3-1.4,1.2-1.7,1.9c-0.7,1.5-1.6,3-2.6,4.3c5-2.5,10.6-7.3,14.5-12.2
					C154.2,127.1,150.8,129.2,147,130.8"/>
			</defs>
			<clipPath id="SVGID_22_">
				<use xlink:href="#SVGID_21_"  overflow="visible"/>
			</clipPath>
			
				<radialGradient id="XMLID_19_" cx="-66.4199" cy="-286.5518" r="9.6001" gradientTransform="matrix(5.1593 0 0 5.1593 485.1039 1562.455)" gradientUnits="userSpaceOnUse">
				<stop  offset="0" style="stop-color:#5A80A7"/>
				<stop  offset="0.5751" style="stop-color:#396787"/>
				<stop  offset="1" style="stop-color:#1D526C"/>
			</radialGradient>
			<rect id="XMLID_12_" x="142.7" y="124.8" clip-path="url(#SVGID_22_)" fill="url(#XMLID_19_)" width="14.5" height="12.2"/>
		</g>
	</g>
	<g>
		<g>
			<defs>
				<path id="SVGID_23_" d="M107.7,89.2c-3.9,9.6-4.6,20.1-4.6,20.1c0,0.5,0.1,0.601,0.4,0.7c0,0,8.2,3.1,18.6,3.1
					c0,0,0.7,0,0.9-0.199c0.3-0.301,0.3-0.5,0.3-1.301c0-5.199,0.1-18.8,0.1-18.8c0-0.9-0.4-1.3-1.2-1.4c-4.9-0.2-9.6-1.1-13.7-2.6
					c-0.2-0.1-0.4-0.1-0.5-0.1C107.9,88.9,107.8,88.9,107.7,89.2"/>
			</defs>
			<clipPath id="SVGID_24_">
				<use xlink:href="#SVGID_23_"  overflow="visible"/>
			</clipPath>
			
				<radialGradient id="XMLID_21_" cx="-66.3535" cy="-282.4209" r="9.5989" gradientTransform="matrix(5.1552 0 0 6.0144 484.4888 1782.6362)" gradientUnits="userSpaceOnUse">
				<stop  offset="0" style="stop-color:#5A80A7"/>
				<stop  offset="0.5751" style="stop-color:#396787"/>
				<stop  offset="1" style="stop-color:#1D526C"/>
			</radialGradient>
			<rect id="XMLID_9_" x="103" y="88.8" clip-path="url(#SVGID_24_)" fill="url(#XMLID_21_)" width="20.4" height="24.3"/>
		</g>
	</g>
	<g>
		<g>
			<defs>
				<path id="SVGID_25_" d="M108.8,86.3L108.8,86.3c-0.2,0.5-0.1,0.7-0.1,0.7c0.1,0.1,0.2,0.2,0.2,0.2c3.1,1,9.1,2,13.4,2
					c0.5,0,0.7-0.1,0.9-0.2c0.2-0.2,0.3-0.5,0.3-1.1c0.1-5.8,0.3-11.9,0.6-17.8c-1.8,0-4-0.3-5.5-0.7
					C114.7,74.4,111.4,80,108.8,86.3"/>
			</defs>
			<clipPath id="SVGID_26_">
				<use xlink:href="#SVGID_25_"  overflow="visible"/>
			</clipPath>
			
				<radialGradient id="XMLID_23_" cx="-66.376" cy="-281.71" r="9.6026" gradientTransform="matrix(5.1563 0 0 6.1875 484.6523 1827.2617)" gradientUnits="userSpaceOnUse">
				<stop  offset="0" style="stop-color:#5A80A7"/>
				<stop  offset="0.5751" style="stop-color:#396787"/>
				<stop  offset="1" style="stop-color:#1D526C"/>
			</radialGradient>
			<rect id="XMLID_7_" x="108.6" y="69.4" clip-path="url(#SVGID_26_)" fill="url(#XMLID_23_)" width="15.5" height="19.8"/>
		</g>
	</g>
	<g>
		<g>
			<defs>
				<path id="SVGID_27_" d="M141.1,89.1c-0.1,0-0.3,0-0.6,0.2c-4.2,1.4-8.7,2.2-13.6,2.3c-0.9,0-1.2,0.7-1.2,1.4c0,3,0.1,7.7,0.1,14
					c0,1.6,0,3.8,0,5.3c0,0,0,0.5,0.2,0.7c0.1,0.1,0.4,0.2,0.7,0.2c2.899-0.2,10.399-0.7,17.899-3.601
					c1-0.399,1.301-0.899,1.301-1.6c0-0.2,0-0.4,0-0.6c-0.801-5.7-2.101-11.5-4.101-17.3C141.4,89.2,141.3,89.1,141.1,89.1
					L141.1,89.1z"/>
			</defs>
			<clipPath id="SVGID_28_">
				<use xlink:href="#SVGID_27_"  overflow="visible"/>
			</clipPath>
			
				<radialGradient id="XMLID_25_" cx="-66.7524" cy="-282.3052" r="9.6001" gradientTransform="matrix(5.1802 0 0 6.0436 488.2341 1790.1683)" gradientUnits="userSpaceOnUse">
				<stop  offset="0" style="stop-color:#5A80A7"/>
				<stop  offset="0.5751" style="stop-color:#396787"/>
				<stop  offset="1" style="stop-color:#1D526C"/>
			</radialGradient>
			<rect id="XMLID_5_" x="125.7" y="89.1" clip-path="url(#SVGID_28_)" fill="url(#XMLID_25_)" width="20.2" height="24"/>
		</g>
	</g>
</g>
</svg>
