<?xml version="1.0" encoding="utf-8"?>
<!-- Generator: Adobe Illustrator 16.0.0, SVG Export Plug-In . SVG Version: 6.00 Build 0)  -->
<!DOCTYPE svg PUBLIC "-//W3C//DTD SVG 1.1//EN" "http://www.w3.org/Graphics/SVG/1.1/DTD/svg11.dtd">
<svg version="1.1" id="Capa_1" xmlns="http://www.w3.org/2000/svg" xmlns:xlink="http://www.w3.org/1999/xlink" x="0px" y="0px"
	 width="250px" height="200px" viewBox="0 0 250 200" enable-background="new 0 0 250 200" xml:space="preserve">
<rect fill="#FFFFFF" width="250" height="200"/>
<g>
	<g>
		<path fill="#B5C52C" d="M80,77c0-10.4-5.9-19.3-14.5-23.8c6.9-8.6,17.5-14.1,29.3-14.1c20.8,0,37.7,16.9,37.7,37.6
			c0,20.8-16.9,37.7-37.7,37.7c-11.7,0-22.2-5.301-29.1-13.7C74.2,96.2,80,87.2,80,77z"/>
		<path fill="#007982" d="M80.3,77c0,10.4-5.8,19.3-14.3,23.9c-5.4-6.601-8.7-15-8.7-24.2c0-9,3.1-17.3,8.4-23.8
			C74.3,57.5,80.3,66.5,80.3,77z"/>
		<path fill="#092657" d="M61,102.7c-2.5,0.8-5.2,1.2-7.9,1.2c-14.9,0-26.9-12-26.9-26.9c0-14.8,12-26.9,26.9-26.9
			c2.6,0,5,0.4,7.4,1c-5.4,7.1-8.5,16-8.5,25.6C52,86.6,55.4,95.5,61,102.7L61,102.7z"/>
	</g>
	<g>
		<g>
			<path fill="#092657" d="M25.3,139.7H29c4.1,0,7.8-1.4,7.8-6.8c0-5.4-3.7-6.801-7.8-6.801h-3.7V139.7L25.3,139.7z M28,128.3h1.5
				c2.3,0,4.5,1.7,4.5,4.601c0,2.899-2.2,4.6-4.5,4.6H28V128.3L28,128.3z"/>
			<path fill="#092657" d="M38.7,134.8c0,2.9,1.9,5.101,5.2,5.101c3.3,0,5.2-2.301,5.2-5.101c0-3.3-2.3-5.3-5.2-5.3
				S38.7,131.5,38.7,134.8L38.7,134.8z M41.4,134.4c0-1.5,0.8-3,2.5-3c1.7,0,2.5,1.399,2.5,3c0,1.699-0.5,3.399-2.5,3.399
				C41.9,137.9,41.4,136.1,41.4,134.4L41.4,134.4z"/>
			<polygon fill="#092657" points="53.7,139.7 56.6,139.7 58.8,132.1 58.8,132.1 61,139.7 64,139.7 67.1,129.7 64.6,129.7 
				62.5,137.1 62.5,137.1 60.3,129.7 57.3,129.7 55.3,137.1 55.3,137.1 53.1,129.7 50.3,129.7 			"/>
			<path fill="#092657" d="M72.4,139.6c0.8,0.2,1.3,0.301,2.1,0.301c2.8,0,3.7-2,3.7-3.4v-10.3h-2.7v9c0,1,0,2.399-1.8,2.399
				c-0.5,0-0.9-0.1-1.3-0.199V139.6L72.4,139.6z"/>
			<path fill="#092657" d="M80.5,134.8c0,2.9,1.9,5.101,5.2,5.101c3.3,0,5.2-2.301,5.2-5.101c0-3.3-2.3-5.3-5.2-5.3
				C82.7,129.5,80.5,131.5,80.5,134.8L80.5,134.8z M83.2,134.4c0-1.5,0.8-3,2.5-3c1.7,0,2.5,1.399,2.5,3
				c0,1.699-0.5,3.399-2.5,3.399C83.7,137.9,83.2,136.1,83.2,134.4L83.2,134.4z"/>
			<path fill="#092657" d="M93.2,139.7h2.6v-4.9c0-1.3,0.4-3.3,2.3-3.3c1.7,0,1.7,1.6,1.7,2.9v5.3h2.6v-6.3c0-2.2-1-3.9-3.4-3.9
				c-1.4,0-2.5,0.4-3.3,1.6l0,0V129.7h-2.5V139.7L93.2,139.7z"/>
			<path fill="#092657" d="M107.1,133.7c0.1-1.3,0.9-2.3,2.3-2.3c1.5,0,2,1.1,2.1,2.3H107.1L107.1,133.7z M113.3,137
				c-1,0.5-2.1,1-3.3,1c-1.6,0-2.7-0.9-2.8-2.5h6.9c0-3.5-1-6-4.7-6c-3.1,0-4.6,2.4-4.6,5.3c0,3.3,1.9,5.2,5.2,5.2
				c1.4,0,2.5-0.3,3.4-0.8V137H113.3z"/>
			<path fill="#092657" d="M122.4,129.8c-0.8-0.2-1.6-0.399-2.8-0.399c-2,0-3.9,0.899-3.9,3.1c0,3.6,4.5,2.3,4.5,4.2
				c0,1-1,1.2-1.7,1.2c-0.9,0-1.7-0.301-2.6-0.7l-0.2,2.1c0.9,0.3,2,0.4,2.9,0.4c2.1,0,4.2-0.9,4.2-3.3c0-3.601-4.5-2.601-4.5-4.2
				c0-0.9,0.8-1.101,1.5-1.101c0.9,0,1.5,0.2,2.3,0.4L122.4,129.8L122.4,129.8z"/>
			<path fill="#092657" d="M33,143.4c-1-0.301-2.1-0.5-3.2-0.5c-2.4,0-4.7,1.1-4.7,4.1c0,4.5,5.9,3.4,5.9,6c0,1.2-1.4,1.7-2.4,1.7
				c-1.1,0-2.1-0.3-3.1-0.8l-0.3,2.399c1.3,0.3,2,0.5,3.5,0.5c2.7,0,5.1-1.1,5.1-4.1c0-4.5-5.9-3.5-5.9-5.9
				c0-1.5,1.2-1.899,2.1-1.899s1.9,0.199,2.7,0.6L33,143.4L33,143.4z"/>
			<path fill="#092657" d="M44.8,146.7h-2.6v4.899c0,1.301-0.4,3.301-2.3,3.301c-1.7,0-1.7-1.601-1.7-2.9v-5.3h-2.6v6.3
				c0,2.2,1,3.9,3.4,3.9c1.4,0,2.5-0.601,3.3-1.601l0,0v1.4h2.5V146.7L44.8,146.7z"/>
			<path fill="#092657" d="M53.8,146.8c-0.8-0.2-1.6-0.399-2.8-0.399c-2,0-3.9,0.899-3.9,3.1c0,3.6,4.5,2.3,4.5,4.2
				c0,1-1,1.2-1.7,1.2c-0.9,0-1.7-0.301-2.6-0.7l-0.2,2.1c0.9,0.3,2,0.4,2.9,0.4c2.1,0,4.2-0.9,4.2-3.3c0-3.601-4.5-2.601-4.5-4.2
				c0-0.9,0.8-1.101,1.5-1.101c0.9,0,1.5,0.2,2.3,0.4L53.8,146.8L53.8,146.8z"/>
			<path fill="#092657" d="M57.5,153.6c0,2,1.1,3.2,3.2,3.2c0.8,0,1.4-0.1,1.9-0.2l-0.1-2.1c-0.3,0.2-0.7,0.3-1.2,0.3
				c-1,0-1.2-0.8-1.2-1.6V148.6h2.3V146.7h-2.3v-2.8l-2.6,0.8v2h-1.9v1.899h1.9V153.6L57.5,153.6z"/>
			<path fill="#092657" d="M64.9,149.4c0.9-0.7,2-1.101,3.1-1.101c1.5,0,2.2,0.5,2.2,2.101h-1.4c-1.1,0-2.4,0.1-3.3,0.6
				c-1,0.5-1.7,1.4-1.7,2.8c0,1.9,1.7,3,3.5,3c1.2,0,2.5-0.6,3.1-1.7l0,0c0,0.301,0,1,0.1,1.5h2.3c-0.1-0.8-0.1-1.5-0.1-2.199
				c0-0.7,0-1.5,0-2.5V150.6c0-2.899-1.3-4.199-4.3-4.199c-1.1,0-2.5,0.3-3.5,0.8V149.4L64.9,149.4z M66.2,153.7
				c0-1.5,1.7-1.7,2.9-1.7h1.1c0,0.8-0.1,1.5-0.5,2.1c-0.4,0.5-1,0.9-1.8,0.9C67,155,66.2,154.6,66.2,153.7L66.2,153.7z"/>
			<path fill="#092657" d="M75.5,156.6h2.6v-10h-2.6V156.6L75.5,156.6z M75.5,144.8h2.6v-2.5h-2.6V144.8L75.5,144.8z"/>
			<path fill="#092657" d="M81.1,156.6h2.6V151.7c0-1.3,0.4-3.3,2.3-3.3c1.7,0,1.7,1.6,1.7,2.899v5.3h2.6v-6.3
				c0-2.2-1-3.899-3.4-3.899c-1.4,0-2.5,0.399-3.3,1.6l0,0v-1.4h-2.5V156.6L81.1,156.6z"/>
			<path fill="#092657" d="M93.7,149.4c0.9-0.7,2-1.101,3.1-1.101c1.5,0,2.2,0.5,2.2,2.101h-1.4c-1.1,0-2.4,0.1-3.3,0.6
				c-1,0.5-1.7,1.4-1.7,2.8c0,1.9,1.7,3,3.5,3c1.2,0,2.5-0.6,3.1-1.7l0,0c0,0.301,0,1,0.1,1.5h2.3c-0.1-0.8-0.1-1.5-0.1-2.199
				c0-0.7,0-1.5,0-2.5V150.6c0-2.899-1.3-4.199-4.3-4.199c-1.1,0-2.5,0.3-3.5,0.8V149.4L93.7,149.4z M95,153.7
				c0-1.5,1.7-1.7,2.9-1.7H99c0,0.8-0.1,1.5-0.5,2.1c-0.4,0.5-1,0.9-1.8,0.9C95.7,155,95,154.6,95,153.7L95,153.7z"/>
			<path fill="#092657" d="M106.8,151.6c0-1.399,0.7-3.199,2.3-3.199c1.7,0,2.1,1.8,2.1,3.199c0,1.4-0.5,3.2-2.2,3.2
				C107.4,154.8,106.8,153,106.8,151.6L106.8,151.6z M104.2,156.6h2.5V155.4l0,0c0.8,1.1,2,1.5,3.1,1.5c3.1,0,4.2-2.5,4.2-5.2
				s-1.1-5.2-4.2-5.2c-1.4,0-2.3,0.6-3,1.5l0,0v-5.8h-2.6V156.6L104.2,156.6z"/>
			<path fill="#092657" d="M116.3,156.6h2.6v-10h-2.6V156.6L116.3,156.6z M116.3,144.8h2.6v-2.5h-2.6V144.8L116.3,144.8z"/>
			<polygon fill="#092657" points="122,156.6 124.6,156.6 124.6,142.1 122,142.1 			"/>
			<path fill="#092657" d="M127.6,156.6h2.601v-10H127.6V156.6L127.6,156.6z M127.6,144.8h2.601v-2.5H127.6V144.8L127.6,144.8z"/>
			<path fill="#092657" d="M134.1,153.6c0,2,1.101,3.2,3.2,3.2c0.8,0,1.4-0.1,1.9-0.2l-0.101-2.1c-0.3,0.2-0.699,0.3-1.199,0.3
				c-1,0-1.2-0.8-1.2-1.6V148.6h2.3V146.7h-2.3v-2.8l-2.601,0.8v2H132.2v1.899h1.899V153.6L134.1,153.6z"/>
			<path fill="#092657" d="M142.8,146.7H139.9l3.8,10.5c0,1.1-0.601,1.8-1.7,1.8c-0.6,0-1-0.1-1.3-0.2l-0.2,1.9
				c0.6,0.2,1.2,0.3,1.8,0.3c2.7,0,3.3-2.2,4.101-4.4l3.699-9.899h-2.6l-2.4,7.3l0,0L142.8,146.7L142.8,146.7z"/>
			<polygon fill="#092657" points="155.5,156.6 158.2,156.6 158.2,143.1 155.5,143.1 			"/>
			<path fill="#092657" d="M161.1,156.6h2.601V151.7c0-1.3,0.399-3.3,2.3-3.3c1.7,0,1.7,1.6,1.7,2.899v5.3h2.6v-6.3
				c0-2.2-1-3.899-3.399-3.899c-1.4,0-2.5,0.399-3.301,1.6l0,0v-1.4h-2.5V156.6L161.1,156.6z"/>
			<path fill="#092657" d="M175.3,151.6c0-1.3,0.5-3.199,2.101-3.199c1.699,0,2.3,1.8,2.3,3.199c0,1.4-0.601,3.2-2.3,3.2
				C175.8,154.8,175.3,153,175.3,151.6L175.3,151.6z M179.9,156.6h2.5v-14.5H179.8v5.7l0,0c-0.8-0.899-1.7-1.399-3-1.399
				c-3.1,0-4.2,2.399-4.2,5.199c0,2.7,1.101,5.2,4.2,5.2c1.2,0,2.3-0.399,3.101-1.399l0,0V156.6L179.9,156.6z"/>
			<path fill="#092657" d="M187.2,150.7c0.1-1.3,0.899-2.3,2.3-2.3c1.5,0,2,1.1,2.1,2.3H187.2L187.2,150.7z M193.3,153.9
				c-1,0.5-2.1,1-3.3,1c-1.6,0-2.7-0.9-2.8-2.5h6.899c0-3.5-1-6-4.699-6c-3.101,0-4.601,2.399-4.601,5.3c0,3.3,1.9,5.2,5.2,5.2
				c1.4,0,2.5-0.301,3.4-0.801V153.9H193.3z"/>
			<polygon fill="#092657" points="198.6,151.4 195.2,156.6 198,156.6 200.3,152.9 202.5,156.6 205.6,156.6 202.2,151.4 
				205.2,146.7 202.5,146.7 200.6,149.9 198.6,146.7 195.5,146.7 			"/>
			<path fill="#092657" d="M209.2,150.7c0.1-1.3,0.899-2.3,2.3-2.3c1.5,0,2,1.1,2.1,2.3H209.2L209.2,150.7z M215.4,153.9
				c-1,0.5-2.101,1-3.301,1c-1.6,0-2.699-0.9-2.8-2.5h6.9c0-3.5-1-6-4.7-6c-3.1,0-4.6,2.399-4.6,5.3c0,3.3,1.899,5.2,5.199,5.2
				c1.4,0,2.5-0.301,3.4-0.801V153.9H215.4z"/>
			<path fill="#092657" d="M224.5,146.8c-0.8-0.2-1.6-0.399-2.8-0.399c-2,0-3.9,0.899-3.9,3.1c0,3.6,4.5,2.3,4.5,4.2
				c0,1-1,1.2-1.7,1.2c-0.899,0-1.699-0.301-2.6-0.7l-0.2,2.1c0.9,0.3,2,0.4,2.9,0.4c2.1,0,4.2-0.9,4.2-3.3
				c0-3.601-4.5-2.601-4.5-4.2c0-0.9,0.8-1.101,1.5-1.101c0.899,0,1.5,0.2,2.3,0.4L224.5,146.8L224.5,146.8z"/>
		</g>
	</g>
</g>
</svg>
